<?xml version="1.0" encoding="UTF-8"?>
<svg version="1.1" xmlns="http://www.w3.org/2000/svg" width="736" height="736">
<path d="M0 0 C2.4375 0.8125 2.4375 0.8125 4.4375 3.8125 C4.4375 4.8025 4.4375 5.7925 4.4375 6.8125 C5.0975 6.8125 5.7575 6.8125 6.4375 6.8125 C6.540625 7.451875 6.64375 8.09125 6.75 8.75 C6.976875 9.430625 7.20375 10.11125 7.4375 10.8125 C8.4275 11.1425 9.4175 11.4725 10.4375 11.8125 C10.4375 12.4725 10.4375 13.1325 10.4375 13.8125 C11.4275 14.1425 12.4175 14.4725 13.4375 14.8125 C15.63014201 19.10674006 16.11127209 23.56836043 16.77734375 28.2890625 C17.19650732 30.85243331 17.19650732 30.85243331 18.96044922 32.15112305 C20.99622464 34.44094978 20.78296075 35.89093022 20.73046875 38.91796875 C20.7159668 40.39233398 20.7159668 40.39233398 20.70117188 41.89648438 C20.67603516 42.92064453 20.65089844 43.94480469 20.625 45 C20.60469727 46.55364258 20.60469727 46.55364258 20.58398438 48.13867188 C20.54861389 50.69713699 20.49925544 53.2545578 20.4375 55.8125 C21.0975 55.8125 21.7575 55.8125 22.4375 55.8125 C22.9325 58.2875 22.9325 58.2875 23.4375 60.8125 C24.0975 60.8125 24.7575 60.8125 25.4375 60.8125 C25.664375 61.59625 25.89125 62.38 26.125 63.1875 C27.20420768 66.02785469 27.20420768 66.02785469 30 67 C30.804375 67.268125 31.60875 67.53625 32.4375 67.8125 C32.7675 68.4725 33.0975 69.1325 33.4375 69.8125 C34.4275 70.1425 35.4175 70.4725 36.4375 70.8125 C36.4375 71.4725 36.4375 72.1325 36.4375 72.8125 C39.4075 73.3075 39.4075 73.3075 42.4375 73.8125 C42.4375 74.4725 42.4375 75.1325 42.4375 75.8125 C43.41589844 75.88597656 43.41589844 75.88597656 44.4140625 75.9609375 C45.28804687 76.03570312 46.16203125 76.11046875 47.0625 76.1875 C47.92101562 76.25710937 48.77953125 76.32671875 49.6640625 76.3984375 C52.4375 76.8125 52.4375 76.8125 54.94262695 77.76782227 C81.75555212 85.78266731 115.66684236 80.91193682 143.29077148 80.69604492 C148.90453394 80.65316325 154.51822264 80.62518881 160.1321125 80.60574532 C163.26292735 80.59022504 166.39324369 80.55730617 169.52391052 80.52391052 C179.26153422 80.46571305 188.14417886 80.55190767 197.4375 83.8125 C197.4375 84.4725 197.4375 85.1325 197.4375 85.8125 C198.7575 86.1425 200.0775 86.4725 201.4375 86.8125 C201.4375 87.4725 201.4375 88.1325 201.4375 88.8125 C202.4275 89.1425 203.4175 89.4725 204.4375 89.8125 C206.76015612 92.39322903 207.4375 93.26426068 207.4375 96.8125 C208.0975 96.8125 208.7575 96.8125 209.4375 96.8125 C210.88934478 101.34951494 211.67259196 104.99311476 211.4375 109.8125 C212.0975 109.8125 212.7575 109.8125 213.4375 109.8125 C213.7675 113.7725 214.0975 117.7325 214.4375 121.8125 C215.0975 121.8125 215.7575 121.8125 216.4375 121.8125 C216.59605469 122.4415625 216.75460937 123.070625 216.91796875 123.71875 C218.40047213 129.15732592 220.1874361 133.51226222 223.44921875 138.12109375 C224.4375 139.8125 224.4375 139.8125 224.4375 142.8125 C225.0975 142.8125 225.7575 142.8125 226.4375 142.8125 C228.5625 144.6875 228.5625 144.6875 230.4375 146.8125 C230.4375 147.4725 230.4375 148.1325 230.4375 148.8125 C231.7575 149.1425 233.0775 149.4725 234.4375 149.8125 C234.4375 150.4725 234.4375 151.1325 234.4375 151.8125 C236.0875 152.1425 237.7375 152.4725 239.4375 152.8125 C239.4375 153.4725 239.4375 154.1325 239.4375 154.8125 C240.3965625 154.9671875 240.3965625 154.9671875 241.375 155.125 C243.94683398 155.70235048 246.32169103 156.40695696 248.8125 157.25 C249.99005859 157.64638672 249.99005859 157.64638672 251.19140625 158.05078125 C253.0444362 158.6792001 254.8972476 159.30826334 256.75 159.9375 C267.55327323 162.50098856 279.04814371 162.07589835 290.09765625 162.28930664 C305.77450527 162.60458046 320.5374254 165.18108649 334.4375 172.8125 C334.4375 173.4725 334.4375 174.1325 334.4375 174.8125 C336.0875 175.1425 337.7375 175.4725 339.4375 175.8125 C339.4375 176.4725 339.4375 177.1325 339.4375 177.8125 C341.0875 178.1425 342.7375 178.4725 344.4375 178.8125 C344.4375 179.4725 344.4375 180.1325 344.4375 180.8125 C345.324375 181.080625 346.21125 181.34875 347.125 181.625 C350.2284666 182.7375635 352.74860685 183.91445778 355.4375 185.8125 C355.4375 186.4725 355.4375 187.1325 355.4375 187.8125 C356.7575 188.1425 358.0775 188.4725 359.4375 188.8125 C359.4375 189.4725 359.4375 190.1325 359.4375 190.8125 C360.200625 191.080625 360.96375 191.34875 361.75 191.625 C364.32738618 192.76384505 365.70704864 193.62666671 367.4375 195.8125 C367.4375 196.4725 367.4375 197.1325 367.4375 197.8125 C368.7575 198.1425 370.0775 198.4725 371.4375 198.8125 C371.4375 199.4725 371.4375 200.1325 371.4375 200.8125 C372.7575 201.1425 374.0775 201.4725 375.4375 201.8125 C375.4375 202.4725 375.4375 203.1325 375.4375 203.8125 C376.69433594 203.94978516 376.69433594 203.94978516 377.9765625 204.08984375 C381.9549342 204.92054213 385.2501503 206.49714343 388.8125 208.375 C389.45316406 208.70435547 390.09382813 209.03371094 390.75390625 209.37304688 C392.31888632 210.17889482 393.87874021 210.99468493 395.4375 211.8125 C395.4375 212.4725 395.4375 213.1325 395.4375 213.8125 C397.2009375 213.9671875 397.2009375 213.9671875 399 214.125 C403.28074886 214.64778172 406.53455482 216.01114069 410.4375 217.8125 C411.76026056 218.18558631 413.08982077 218.54296415 414.4375 218.8125 C414.4375 219.4725 414.4375 220.1325 414.4375 220.8125 C415.675 220.874375 416.9125 220.93625 418.1875 221 C421.74300124 221.41606929 422.28389125 221.65505104 424.9375 224.375 C425.4325 225.179375 425.9275 225.98375 426.4375 226.8125 C425.875 228.75 425.875 228.75 424.4375 230.8125 C420.8125 231.5625 420.8125 231.5625 417.4375 231.8125 C417.4375 232.4725 417.4375 233.1325 417.4375 233.8125 C405.46954849 236.02746416 394.89700168 234.63233389 383.4375 230.8125 C383.4375 230.1525 383.4375 229.4925 383.4375 228.8125 C382.32375 228.73 381.21 228.6475 380.0625 228.5625 C374.8223781 227.93330974 370.23508766 225.92619129 365.4375 223.8125 C365.4375 223.1525 365.4375 222.4925 365.4375 221.8125 C362.7975 221.4825 360.1575 221.1525 357.4375 220.8125 C357.4375 220.1525 357.4375 219.4925 357.4375 218.8125 C352.1575 218.4825 346.8775 218.1525 341.4375 217.8125 C341.4375 217.1525 341.4375 216.4925 341.4375 215.8125 C335.1675 215.8125 328.8975 215.8125 322.4375 215.8125 C322.4375 216.4725 322.4375 217.1325 322.4375 217.8125 C316.1675 218.1425 309.8975 218.4725 303.4375 218.8125 C303.4375 219.4725 303.4375 220.1325 303.4375 220.8125 C302.7775 220.8125 302.1175 220.8125 301.4375 220.8125 C301.4375 222.1325 301.4375 223.4525 301.4375 224.8125 C302.0975 224.8125 302.7575 224.8125 303.4375 224.8125 C303.4375 225.4725 303.4375 226.1325 303.4375 226.8125 C306.4075 227.4725 309.3775 228.1325 312.4375 228.8125 C312.4375 229.4725 312.4375 230.1325 312.4375 230.8125 C314.7475 231.1425 317.0575 231.4725 319.4375 231.8125 C319.4375 232.4725 319.4375 233.1325 319.4375 233.8125 C321.4175 234.1425 323.3975 234.4725 325.4375 234.8125 C325.4375 235.4725 325.4375 236.1325 325.4375 236.8125 C326.22125 236.874375 327.005 236.93625 327.8125 237 C331.85360474 237.90576486 334.91194183 239.49272297 338.55859375 241.40234375 C343.6957034 243.91862134 349.07413193 245.83696474 354.4375 247.8125 C354.4375 248.4725 354.4375 249.1325 354.4375 249.8125 C355.22125 249.956875 356.005 250.10125 356.8125 250.25 C359.4375 250.8125 359.4375 250.8125 361.4375 251.8125 C361.4375 252.4725 361.4375 253.1325 361.4375 253.8125 C362.7575 254.1425 364.0775 254.4725 365.4375 254.8125 C365.4375 255.4725 365.4375 256.1325 365.4375 256.8125 C366.4275 257.1425 367.4175 257.4725 368.4375 257.8125 C368.4375 258.4725 368.4375 259.1325 368.4375 259.8125 C369.7575 260.1425 371.0775 260.4725 372.4375 260.8125 C372.4375 261.4725 372.4375 262.1325 372.4375 262.8125 C373.00726562 263.05226563 373.57703125 263.29203125 374.1640625 263.5390625 C376.89474869 265.06862212 378.66252956 266.91682946 380.8125 269.1875 C383.40950552 271.8617718 385.83417486 274.27229926 389 276.25 C390.2065625 277.0234375 390.2065625 277.0234375 391.4375 277.8125 C391.4375 278.4725 391.4375 279.1325 391.4375 279.8125 C392.7575 280.1425 394.0775 280.4725 395.4375 280.8125 C395.4375 281.4725 395.4375 282.1325 395.4375 282.8125 C396.4275 283.080625 397.4175 283.34875 398.4375 283.625 C402.53362784 284.789339 406.46593633 286.27961578 410.4375 287.8125 C410.4375 288.4725 410.4375 289.1325 410.4375 289.8125 C411.324375 289.93625 412.21125 290.06 413.125 290.1875 C416.4375 290.8125 416.4375 290.8125 418.875 291.8125 C422.03022521 293.0438074 425.08485955 293.41807171 428.4375 293.8125 C428.4375 294.4725 428.4375 295.1325 428.4375 295.8125 C429.0975 295.8125 429.7575 295.8125 430.4375 295.8125 C430.1075 297.4625 429.7775 299.1125 429.4375 300.8125 C427.7875 300.8125 426.1375 300.8125 424.4375 300.8125 C424.4375 301.4725 424.4375 302.1325 424.4375 302.8125 C416.61567855 303.53571251 409.21072 304.12999492 401.4375 302.8125 C401.1075 302.4825 400.7775 302.1525 400.4375 301.8125 C398.42438551 301.41680892 396.40152792 301.06997809 394.375 300.75 C393.27027344 300.57339844 392.16554688 300.39679688 391.02734375 300.21484375 C390.17269531 300.08207031 389.31804687 299.94929688 388.4375 299.8125 C388.4375 299.1525 388.4375 298.4925 388.4375 297.8125 C387.8290625 297.77511719 387.220625 297.73773438 386.59375 297.69921875 C380.93476321 297.27479474 375.54958331 296.44442808 370 295.25 C355.33872177 292.24588755 339.60567302 293.1442969 324.94921875 295.78515625 C318.40190513 296.88891793 311.86980427 297.42373889 305.25 297.875 C303.02705593 298.02843767 300.80437556 298.18576362 298.58203125 298.34765625 C297.61628174 298.413479 296.65053223 298.47930176 295.65551758 298.54711914 C293.4667272 298.57724129 293.4667272 298.57724129 292.4375 299.8125 C289.84134343 299.92599006 287.27283124 299.97668334 284.67578125 299.98046875 C283.89236862 299.98379715 283.10895599 299.98712555 282.30180359 299.99055481 C280.63813872 299.99562964 278.97446362 299.99796296 277.31079102 299.99780273 C274.7779833 299.99997599 272.24562041 300.01808858 269.71289062 300.03710938 C268.09635565 300.04004592 266.47981862 300.04202897 264.86328125 300.04296875 C264.10992996 300.05015427 263.35657867 300.05733978 262.58039856 300.06474304 C258.12909946 300.04564439 254.57832137 299.42091822 250.4375 297.8125 C248.7359375 297.3484375 248.7359375 297.3484375 247 296.875 C243.30043828 295.77162194 239.95453565 294.39157723 236.4375 292.8125 C236.4375 292.1525 236.4375 291.4925 236.4375 290.8125 C234.4575 290.4825 232.4775 290.1525 230.4375 289.8125 C230.4375 289.1525 230.4375 288.4925 230.4375 287.8125 C228.1275 287.4825 225.8175 287.1525 223.4375 286.8125 C223.4375 286.1525 223.4375 285.4925 223.4375 284.8125 C222.57125 284.709375 221.705 284.60625 220.8125 284.5 C217.25433648 283.77518891 214.64198611 282.4844058 211.4375 280.8125 C209.20224965 280.12613375 209.20224965 280.12613375 207.4375 279.8125 C207.4375 279.1525 207.4375 278.4925 207.4375 277.8125 C206.365 277.68875 205.2925 277.565 204.1875 277.4375 C200.93657407 276.89567901 199.25945244 276.26899158 196.4375 274.8125 C188.31433495 273.11868291 179.28860316 273.15155802 171.0625 274.3125 C166.820692 274.89757697 162.70999266 274.90151026 158.4375 274.8125 C158.4375 275.4725 158.4375 276.1325 158.4375 276.8125 C151.74074864 277.84276944 145.2060324 277.91402799 138.4375 277.8125 C138.4375 278.4725 138.4375 279.1325 138.4375 279.8125 C134.04093827 279.83715504 129.6444128 279.85533842 125.24780273 279.86743164 C123.75105082 279.87247121 122.25430384 279.87930287 120.75756836 279.88793945 C118.61050193 279.90002159 116.46350038 279.90573191 114.31640625 279.91015625 C112.37616577 279.91801147 112.37616577 279.91801147 110.39672852 279.92602539 C107.4375 279.8125 107.4375 279.8125 106.4375 278.8125 C103.70048822 278.65239519 100.9858241 278.55303172 98.24609375 278.49609375 C97.01633568 278.4649221 97.01633568 278.4649221 95.76173401 278.43312073 C93.13291099 278.36753506 90.50398496 278.30869874 87.875 278.25 C86.09699439 278.20682333 84.31899935 278.16320933 82.54101562 278.11914062 C78.17328366 278.01184457 73.80544773 277.91060296 69.4375 277.8125 C69.58071033 279.89610683 69.72878052 281.97938001 69.87890625 284.0625 C70.0018103 285.80273438 70.0018103 285.80273438 70.12719727 287.578125 C70.43229311 290.75822706 71.02692377 293.59810072 71.90234375 296.65234375 C72.61674405 299.53601797 73.0127616 302.43527514 73.4375 305.375 C73.95063844 308.90588116 74.47293279 312.28835723 75.5625 315.6875 C76.53962561 319.17723431 76.58470044 322.20608911 76.4375 325.8125 C77.0975 325.8125 77.7575 325.8125 78.4375 325.8125 C78.55867188 326.74191406 78.67984375 327.67132813 78.8046875 328.62890625 C79.73358721 336.24299425 79.73358721 336.24299425 81.5 343.6875 C82.43238392 346.7954464 82.8139401 349.65412597 83.15625 352.86328125 C83.41875997 355.05038999 83.41875997 355.05038999 84.4375 358 C85.89027522 363.53870552 86.11167293 369.11052621 86.4375 374.8125 C87.0975 374.8125 87.7575 374.8125 88.4375 374.8125 C88.57027344 375.88371094 88.70304687 376.95492188 88.83984375 378.05859375 C89.0180056 379.45575769 89.19640319 380.85289159 89.375 382.25 C89.46201172 382.95705078 89.54902344 383.66410156 89.63867188 384.39257812 C89.81966191 387.90067968 89.81966191 387.90067968 91.4375 390.8125 C92.01317808 393.90676967 92.46776599 397.01301219 92.9375 400.125 C93.15845208 402.72206624 93.15845208 402.72206624 94.4375 403.8125 C94.84147852 406.01226624 95.1853353 408.22319283 95.5 410.4375 C95.67660156 411.64664062 95.85320312 412.85578125 96.03515625 414.1015625 C96.42596616 417.70611989 96.50733746 421.19026355 96.4375 424.8125 C97.0975 424.8125 97.7575 424.8125 98.4375 424.8125 C98.57027344 425.73933594 98.70304687 426.66617187 98.83984375 427.62109375 C99.01644531 428.81863281 99.19304687 430.01617188 99.375 431.25 C99.63603516 433.04244141 99.63603516 433.04244141 99.90234375 434.87109375 C100.12735213 437.69205676 100.12735213 437.69205676 101.4375 438.8125 C102.36869789 443.8823552 102.52747924 448.68368304 102.4375 453.8125 C103.0975 453.8125 103.7575 453.8125 104.4375 453.8125 C104.80477452 455.83099221 105.15569003 457.85246396 105.5 459.875 C105.69722656 461.00035156 105.89445312 462.12570312 106.09765625 463.28515625 C106.45557039 467.00005821 106.10424328 470.15240578 105.4375 473.8125 C101.66681168 473.899485 97.89638068 473.95288579 94.125 474 C92.5172168 474.03770508 92.5172168 474.03770508 90.87695312 474.07617188 C89.84892578 474.08583984 88.82089844 474.09550781 87.76171875 474.10546875 C86.81385498 474.1211792 85.86599121 474.13688965 84.8894043 474.15307617 C82.4375 473.8125 82.4375 473.8125 80.63671875 472.53125 C78.5803956 469.58407675 78.85637029 466.10482814 78.75 462.625 C78.71583984 461.87541016 78.68167969 461.12582031 78.64648438 460.35351562 C78.56415706 458.50703162 78.49914719 456.65979006 78.4375 454.8125 C77.7775 454.8125 77.1175 454.8125 76.4375 454.8125 C76.31632812 454.0390625 76.19515625 453.265625 76.0703125 452.46875 C75.33644889 447.9075054 74.61644669 443.45460282 73.375 439 C71.70045069 432.81603445 71.75287287 426.18635162 71.4375 419.8125 C70.7775 419.8125 70.1175 419.8125 69.4375 419.8125 C69.1075 415.1925 68.7775 410.5725 68.4375 405.8125 C67.7775 405.8125 67.1175 405.8125 66.4375 405.8125 C66.1075 401.1925 65.7775 396.5725 65.4375 391.8125 C64.7775 391.8125 64.1175 391.8125 63.4375 391.8125 C63.09826424 389.45905194 62.76599466 387.1049516 62.4375 384.75 C62.34210938 384.09322266 62.24671875 383.43644531 62.1484375 382.75976562 C61.54862326 378.41111237 61.34622907 374.19920929 61.4375 369.8125 C60.7775 369.8125 60.1175 369.8125 59.4375 369.8125 C59.1075 365.1925 58.7775 360.5725 58.4375 355.8125 C57.7775 355.8125 57.1175 355.8125 56.4375 355.8125 C56.31632812 354.88308594 56.19515625 353.95367187 56.0703125 352.99609375 C55.90273437 351.75988281 55.73515625 350.52367187 55.5625 349.25 C55.40007812 348.03183594 55.23765625 346.81367188 55.0703125 345.55859375 C54.44483617 341.85592834 53.47552623 338.41887791 52.4375 334.8125 C51.66067023 331.3252637 50.98255764 327.8216167 50.3125 324.3125 C50.13074219 323.40113281 49.94898438 322.48976563 49.76171875 321.55078125 C48.80055462 316.54261024 48.22739145 311.91113412 48.4375 306.8125 C47.7775 306.8125 47.1175 306.8125 46.4375 306.8125 C46.30472656 305.81347656 46.17195313 304.81445312 46.03515625 303.78515625 C45.85855469 302.49480469 45.68195313 301.20445312 45.5 299.875 C45.32597656 298.58722656 45.15195313 297.29945313 44.97265625 295.97265625 C44.77587577 292.95783687 44.77587577 292.95783687 43.4375 291.8125 C42.95819329 288.60713638 42.56543168 285.40191822 42.1875 282.18359375 C42.03387295 278.70140725 42.03387295 278.70140725 40.4375 275.8125 C40.15431717 274.41437743 39.9240614 273.00541089 39.71875 271.59375 C39.52732422 270.31951172 39.52732422 270.31951172 39.33203125 269.01953125 C39.06901042 267.21484375 38.80598958 265.41015625 38.54296875 263.60546875 C38.35154297 262.33123047 38.35154297 262.33123047 38.15625 261.03125 C38.04216797 260.24685547 37.92808594 259.46246094 37.81054688 258.65429688 C37.61217523 256.80295411 37.61217523 256.80295411 36.4375 255.8125 C36.20222227 253.46262738 36.02363583 251.10693961 35.875 248.75 C35.79121094 247.45964844 35.70742187 246.16929687 35.62109375 244.83984375 C35.56050781 243.84082031 35.49992187 242.84179688 35.4375 241.8125 C34.7775 241.8125 34.1175 241.8125 33.4375 241.8125 C33.31632812 240.88308594 33.19515625 239.95367187 33.0703125 238.99609375 C32.81894531 237.14177734 32.81894531 237.14177734 32.5625 235.25 C32.40007812 234.03183594 32.23765625 232.81367188 32.0703125 231.55859375 C31.51730824 227.8616431 31.51730824 227.8616431 30.5 224.5390625 C29.10898127 219.66026886 28.21353929 214.73908792 27.3125 209.75 C27.13074219 208.78255859 26.94898438 207.81511719 26.76171875 206.81835938 C25.90142684 202.09322222 25.19333947 197.6387399 25.4375 192.8125 C24.7775 192.8125 24.1175 192.8125 23.4375 192.8125 C23.1075 188.1925 22.7775 183.5725 22.4375 178.8125 C21.7775 178.8125 21.1175 178.8125 20.4375 178.8125 C20.25574219 177.31009766 20.25574219 177.31009766 20.0703125 175.77734375 C19.90132849 174.4348597 19.73204142 173.09241377 19.5625 171.75 C19.48386719 171.09322266 19.40523437 170.43644531 19.32421875 169.75976562 C18.90137502 166.45833192 18.33634819 163.46306646 17.40625 160.25 C16.4127828 156.72479379 16.03822562 153.52423079 15.8125 149.875 C15.73773438 148.73160156 15.66296875 147.58820313 15.5859375 146.41015625 C15.53695312 145.55292969 15.48796875 144.69570313 15.4375 143.8125 C14.7775 143.8125 14.1175 143.8125 13.4375 143.8125 C13.30472656 142.74128906 13.17195313 141.67007813 13.03515625 140.56640625 C12.8569944 139.16924231 12.67859681 137.77210841 12.5 136.375 C12.41298828 135.66794922 12.32597656 134.96089844 12.23632812 134.23242188 C12.05533809 130.72432032 12.05533809 130.72432032 10.4375 127.8125 C10.20222227 125.46262738 10.02363583 123.10693961 9.875 120.75 C9.79121094 119.45964844 9.70742187 118.16929687 9.62109375 116.83984375 C9.56050781 115.84082031 9.49992187 114.84179688 9.4375 113.8125 C8.7775 113.8125 8.1175 113.8125 7.4375 113.8125 C7.31632812 112.90628906 7.19515625 112.00007813 7.0703125 111.06640625 C6.24011068 105.03147762 5.36414678 99.08588666 3.93359375 93.1640625 C3.3016083 90.16835196 2.9142363 87.15816825 2.5 84.125 C1.80791226 79.53254184 1.16100203 75.68825288 -1.5625 71.8125 C-3.56266466 70.60367904 -3.56266466 70.60367904 -5.5625 69.8125 C-7.57509324 66.79361014 -7.82793111 65.87393424 -8.0625 62.4375 C-8.37999863 58.89883345 -8.99821139 56.04536312 -10.5625 52.8125 C-11.2225 52.8125 -11.8825 52.8125 -12.5625 52.8125 C-15.03596304 50.33903696 -15.54563144 49.10488832 -15.75 45.5625 C-15.6571875 44.20125 -15.6571875 44.20125 -15.5625 42.8125 C-14.9025 42.8125 -14.2425 42.8125 -13.5625 42.8125 C-13.2325 41.8225 -12.9025 40.8325 -12.5625 39.8125 C-11.9025 39.8125 -11.2425 39.8125 -10.5625 39.8125 C-10.2325 38.8225 -9.9025 37.8325 -9.5625 36.8125 C-8.9025 36.8125 -8.2425 36.8125 -7.5625 36.8125 C-7.5625 36.1525 -7.5625 35.4925 -7.5625 34.8125 C-8.2225 34.8125 -8.8825 34.8125 -9.5625 34.8125 C-11.73098358 30.29482587 -13.2448277 26.92995775 -12.5625 21.8125 C-11.1875 19.4375 -11.1875 19.4375 -9.5625 17.8125 C-8.9025 17.8125 -8.2425 17.8125 -7.5625 17.8125 C-7.45292969 16.68070313 -7.34335938 15.54890625 -7.23046875 14.3828125 C-7.07102939 12.90096436 -6.91083382 11.41919744 -6.75 9.9375 C-6.67974609 9.19113281 -6.60949219 8.44476563 -6.53710938 7.67578125 C-6.31539777 5.70698223 -5.94670661 3.75613342 -5.5625 1.8125 C-2.5625 -0.1875 -2.5625 -0.1875 0 0 Z " fill="#272727" transform="translate(162.5625,135.1875)"/>
<path d="M0 0 C0.72251953 0.29358398 1.44503906 0.58716797 2.18945312 0.88964844 C10.48198358 4.29481264 18.53360544 8.16226916 26.51074219 12.24780273 C38.20156477 18.22613373 47.94772401 20.41017755 61.0625 20.4375 C62.96708984 20.44221313 62.96708984 20.44221313 64.91015625 20.44702148 C83.62190894 20.30474455 102.67963378 17.78463754 121.07861328 14.44042969 C136.54673814 12.10844763 155.15036858 12.51097613 169.96923828 17.37060547 C186.1882676 22.39737363 202.28468764 25.40497643 219 21 C219 20.34 219 19.68 219 19 C219.66 19 220.32 19 221 19 C220.67 20.65 220.34 22.3 220 24 C218.35 24 216.7 24 215 24 C215 24.66 215 25.32 215 26 C207.17817855 26.72321251 199.77322 27.31749492 192 26 C191.67 25.67 191.34 25.34 191 25 C188.98688551 24.60430892 186.96402792 24.25747809 184.9375 23.9375 C183.28041016 23.67259766 183.28041016 23.67259766 181.58984375 23.40234375 C180.73519531 23.26957031 179.88054687 23.13679688 179 23 C179 22.34 179 21.68 179 21 C178.3915625 20.96261719 177.783125 20.92523438 177.15625 20.88671875 C171.49726321 20.46229474 166.11208331 19.63192808 160.5625 18.4375 C145.90122177 15.43338755 130.16817302 16.3317969 115.51171875 18.97265625 C108.96440513 20.07641793 102.43230427 20.61123889 95.8125 21.0625 C93.58955593 21.21593767 91.36687556 21.37326362 89.14453125 21.53515625 C88.17878174 21.600979 87.21303223 21.66680176 86.21801758 21.73461914 C84.0292272 21.76474129 84.0292272 21.76474129 83 23 C80.40384343 23.11349006 77.83533124 23.16418334 75.23828125 23.16796875 C74.06316231 23.17296135 74.06316231 23.17296135 72.86430359 23.17805481 C71.20063872 23.18312964 69.53696362 23.18546296 67.87329102 23.18530273 C65.3404833 23.18747599 62.80812041 23.20558858 60.27539062 23.22460938 C58.65885565 23.22754592 57.04231862 23.22952897 55.42578125 23.23046875 C54.67242996 23.23765427 53.91907867 23.24483978 53.14289856 23.25224304 C48.69159946 23.23314439 45.14082137 22.60841822 41 21 C39.865625 20.690625 38.73125 20.38125 37.5625 20.0625 C33.86293828 18.95912194 30.51703565 17.57907723 27 16 C27 15.34 27 14.68 27 14 C25.02 13.67 23.04 13.34 21 13 C21 12.34 21 11.68 21 11 C18.69 10.67 16.38 10.34 14 10 C14 9.34 14 8.68 14 8 C13.13375 7.896875 12.2675 7.79375 11.375 7.6875 C7.81683648 6.96268891 5.20448611 5.6719058 2 4 C-0.23525035 3.31363375 -0.23525035 3.31363375 -2 3 C-2 2.34 -2 1.68 -2 1 C-3.0725 0.87625 -4.145 0.7525 -5.25 0.625 C-8.50092593 0.08317901 -10.17804756 -0.54350842 -13 -2 C-21.12316505 -3.69381709 -30.14889684 -3.66094198 -38.375 -2.5 C-42.616808 -1.91492303 -46.72750734 -1.91098974 -51 -2 C-51 -1.34 -51 -0.68 -51 0 C-57.69675136 1.03026944 -64.2314676 1.10152799 -71 1 C-71 1.66 -71 2.32 -71 3 C-75.39656173 3.02465504 -79.7930872 3.04283842 -84.18969727 3.05493164 C-85.68644918 3.05997121 -87.18319616 3.06680287 -88.67993164 3.07543945 C-90.82699807 3.08752159 -92.97399962 3.09323191 -95.12109375 3.09765625 C-97.06133423 3.10551147 -97.06133423 3.10551147 -99.04077148 3.11352539 C-102 3 -102 3 -103 2 C-105.73701178 1.83989519 -108.4516759 1.74053172 -111.19140625 1.68359375 C-112.42116432 1.6524221 -112.42116432 1.6524221 -113.67576599 1.62062073 C-116.30458901 1.55503506 -118.93351504 1.49619874 -121.5625 1.4375 C-123.34050561 1.39432333 -125.11850065 1.35070933 -126.89648438 1.30664062 C-131.26421634 1.19934457 -135.63205227 1.09810296 -140 1 C-139.85678967 3.08360683 -139.70871948 5.16688001 -139.55859375 7.25 C-139.47665771 8.41015625 -139.39472168 9.5703125 -139.31030273 10.765625 C-139.00520689 13.94572706 -138.41057623 16.78560072 -137.53515625 19.83984375 C-136.82075595 22.72351797 -136.4247384 25.62277514 -136 28.5625 C-135.48686156 32.09338116 -134.96456721 35.47585723 -133.875 38.875 C-132.89787439 42.36473431 -132.85279956 45.39358911 -133 49 C-132.34 49 -131.68 49 -131 49 C-130.81824219 50.39412109 -130.81824219 50.39412109 -130.6328125 51.81640625 C-129.70391279 59.43049425 -129.70391279 59.43049425 -127.9375 66.875 C-127.00511608 69.9829464 -126.6235599 72.84162597 -126.28125 76.05078125 C-126.01874003 78.23788999 -126.01874003 78.23788999 -125 81.1875 C-123.54722478 86.72620552 -123.32582707 92.29802621 -123 98 C-122.34 98 -121.68 98 -121 98 C-120.80083984 99.60681641 -120.80083984 99.60681641 -120.59765625 101.24609375 C-120.4194944 102.64325769 -120.24109681 104.04039159 -120.0625 105.4375 C-119.97548828 106.14455078 -119.88847656 106.85160156 -119.79882812 107.58007812 C-119.61783809 111.08817968 -119.61783809 111.08817968 -118 114 C-117.42432192 117.09426967 -116.96973401 120.20051219 -116.5 123.3125 C-116.27904792 125.90956624 -116.27904792 125.90956624 -115 127 C-114.59602148 129.19976624 -114.2521647 131.41069283 -113.9375 133.625 C-113.67259766 135.43871094 -113.67259766 135.43871094 -113.40234375 137.2890625 C-113.01153384 140.89361989 -112.93016254 144.37776355 -113 148 C-112.34 148 -111.68 148 -111 148 C-110.86722656 148.92683594 -110.73445313 149.85367188 -110.59765625 150.80859375 C-110.42105469 152.00613281 -110.24445313 153.20367188 -110.0625 154.4375 C-109.88847656 155.63246094 -109.71445312 156.82742188 -109.53515625 158.05859375 C-109.31014787 160.87955676 -109.31014787 160.87955676 -108 162 C-107.06880211 167.0698552 -106.91002076 171.87118304 -107 177 C-106.34 177 -105.68 177 -105 177 C-104.63272548 179.01849221 -104.28180997 181.03996396 -103.9375 183.0625 C-103.74027344 184.18785156 -103.54304688 185.31320312 -103.33984375 186.47265625 C-103 190 -103 190 -104 197 C-111.59 197 -119.18 197 -127 197 C-127.33 196.01 -127.66 195.02 -128 194 C-120.41 194 -112.82 194 -105 194 C-106.33211423 187.46100046 -107.6645679 180.92207171 -108.99780273 174.38330078 C-109.44883391 172.17077335 -109.89968759 169.95820972 -110.3503418 167.74560547 C-112.74339806 155.99690243 -115.1503529 144.25153117 -117.60546875 132.515625 C-119.07444117 125.49066613 -120.52151244 118.46240207 -121.9140625 111.421875 C-122.05860367 110.69133911 -122.20314484 109.96080322 -122.35206604 109.20812988 C-122.92263309 106.31932865 -123.49180363 103.43026364 -124.05761719 100.54052734 C-125.61655327 92.58995332 -127.28616469 84.70522071 -129.30761719 76.85644531 C-130.53790247 71.78086779 -131.40640074 66.64147927 -132.3125 61.5 C-134.07918413 51.71002457 -136.01676678 41.97213554 -138.125 32.25 C-138.37950928 31.0748584 -138.63401855 29.8997168 -138.89624023 28.68896484 C-139.38019685 26.45822485 -139.86462719 24.22758756 -140.34960938 21.99707031 C-141.2076863 18.04295906 -142.05654537 14.08750571 -142.875 10.125 C-143.09929687 9.05507813 -143.32359375 7.98515625 -143.5546875 6.8828125 C-144.01890885 3.87759009 -144.08156443 1.03600917 -144 -2 C-134.47841435 -2.10698411 -125.01023579 -1.99284639 -115.5 -1.5 C-106.22587463 -1.04752537 -96.96064479 -0.86072073 -87.67675781 -0.82275391 C-86.20880119 -0.81603191 -84.74085535 -0.80589971 -83.27294922 -0.79199219 C-71.20255994 -0.68637976 -59.59433863 -1.77936778 -47.82836914 -4.6003418 C-29.96368674 -8.85421465 -16.84508639 -6.92367428 0 0 Z " fill="#EEEEEE" transform="translate(372,412)"/>
<path d="M0 0 C2.52753773 2.52753773 2.3743597 4.43109703 2.71875 7.875 C2.96611363 10.21109302 2.96611363 10.21109302 4 13.1875 C5.45277522 18.72620552 5.67417293 24.29802621 6 30 C6.66 30 7.32 30 8 30 C8.13277344 31.07121094 8.26554688 32.14242187 8.40234375 33.24609375 C8.5805056 34.64325769 8.75890319 36.04039159 8.9375 37.4375 C9.02451172 38.14455078 9.11152344 38.85160156 9.20117188 39.58007812 C9.38216191 43.08817968 9.38216191 43.08817968 11 46 C11.57567808 49.09426967 12.03026599 52.20051219 12.5 55.3125 C12.72095208 57.90956624 12.72095208 57.90956624 14 59 C14.40397852 61.19976624 14.7478353 63.41069283 15.0625 65.625 C15.32740234 67.43871094 15.32740234 67.43871094 15.59765625 69.2890625 C15.98846616 72.89361989 16.06983746 76.37776355 16 80 C16.66 80 17.32 80 18 80 C18.19916016 81.39025391 18.19916016 81.39025391 18.40234375 82.80859375 C18.57894531 84.00613281 18.75554687 85.20367188 18.9375 86.4375 C19.11152344 87.63246094 19.28554688 88.82742188 19.46484375 90.05859375 C19.68985213 92.87955676 19.68985213 92.87955676 21 94 C21.93119789 99.0698552 22.08997924 103.87118304 22 109 C22.66 109 23.32 109 24 109 C24.36727452 111.01849221 24.71819003 113.03996396 25.0625 115.0625 C25.35833984 116.75052734 25.35833984 116.75052734 25.66015625 118.47265625 C26 122 26 122 25 129 C17.41 129 9.82 129 2 129 C1.67 128.01 1.34 127.02 1 126 C8.59 126 16.18 126 24 126 C22.66788577 119.46100046 21.3354321 112.92207171 20.00219727 106.38330078 C19.55116609 104.17077335 19.10031241 101.95820972 18.6496582 99.74560547 C16.25716719 87.99967754 13.85136872 76.25690726 11.3984375 64.5234375 C9.31775912 54.56739348 7.29572154 44.60086365 5.3125 34.625 C4.86862768 32.39809866 4.42447368 30.1712537 3.98022461 27.94442749 C3.69864116 26.53116751 3.41769418 25.11778054 3.13745117 23.70425415 C2.55505487 20.76806581 1.9653436 17.83402097 1.35351562 14.90380859 C1.17111328 14.02805176 0.98871094 13.15229492 0.80078125 12.25 C0.64649658 11.52554687 0.49221191 10.80109375 0.33325195 10.0546875 C-0.21444227 6.67784165 -0.12640094 3.41282549 0 0 Z " fill="#F2F2F2" transform="translate(243,480)"/>
<path d="M0 0 C0.87872772 -0.00857025 1.75745544 -0.0171405 2.66281128 -0.02597046 C19.48457447 -0.07573504 32.6064596 3.57445085 47.86376953 10.43505859 C61.0258419 16.03202347 74.12353473 20.32321903 88.25 15.875 C91.0834743 14.36037267 91.0834743 14.36037267 93.25 12.875 C93.91 12.875 94.57 12.875 95.25 12.875 C94.755 10.895 94.755 10.895 94.25 8.875 C95.57 10.195 96.89 11.515 98.25 12.875 C97.6875 14.8125 97.6875 14.8125 96.25 16.875 C92.625 17.625 92.625 17.625 89.25 17.875 C89.25 18.535 89.25 19.195 89.25 19.875 C77.28204849 22.08996416 66.70950168 20.69483389 55.25 16.875 C55.25 16.215 55.25 15.555 55.25 14.875 C53.579375 14.75125 53.579375 14.75125 51.875 14.625 C46.6348781 13.99580974 42.04758766 11.98869129 37.25 9.875 C37.25 9.215 37.25 8.555 37.25 7.875 C34.61 7.545 31.97 7.215 29.25 6.875 C29.25 6.215 29.25 5.555 29.25 4.875 C23.97 4.545 18.69 4.215 13.25 3.875 C13.25 3.215 13.25 2.555 13.25 1.875 C6.98 1.875 0.71 1.875 -5.75 1.875 C-5.75 2.535 -5.75 3.195 -5.75 3.875 C-15.155 4.37 -15.155 4.37 -24.75 4.875 C-24.75 5.535 -24.75 6.195 -24.75 6.875 C-25.41 6.875 -26.07 6.875 -26.75 6.875 C-27.08 8.195 -27.41 9.515 -27.75 10.875 C-28.74 9.885 -29.73 8.895 -30.75 7.875 C-29.81685049 5.52760249 -29.23777446 4.16255203 -27.02636719 2.85888672 C-18.18359379 0.16499758 -9.17317075 0.0663224 0 0 Z " fill="#F6F6F6" transform="translate(490.75,349.125)"/>
<path d="M0 0 C13.69505348 -0.15387701 27.32274995 0.3122966 41 1 C41 1.33 41 1.66 41 2 C28.65415863 2.67707648 16.36592489 3.1574163 4 3 C4.53053464 12.53079393 4.53053464 12.53079393 6.46484375 21.83984375 C7.17924405 24.72351797 7.5752616 27.62277514 8 30.5625 C8.51313844 34.09338116 9.03543279 37.47585723 10.125 40.875 C11.10212561 44.36473431 11.14720044 47.39358911 11 51 C11.66 51 12.32 51 13 51 C13.13277344 51.95261719 13.26554688 52.90523438 13.40234375 53.88671875 C13.57894531 55.14097656 13.75554687 56.39523437 13.9375 57.6875 C14.11152344 58.92886719 14.28554687 60.17023438 14.46484375 61.44921875 C14.78283395 63.55909536 15.14344013 65.66435427 15.59375 67.75 C16.12258986 70.67895922 15.60501771 73.10935983 15 76 C14.67 76 14.34 76 14 76 C13.87995605 75.3287207 13.75991211 74.65744141 13.63623047 73.96582031 C11.24863858 60.68245399 8.73225826 47.4410687 5.875 34.25 C5.62073242 33.0758252 5.36646484 31.90165039 5.10449219 30.69189453 C4.62026216 28.46018432 4.13558658 26.22857072 3.65039062 23.99707031 C2.7923137 20.04295906 1.94345463 16.08750571 1.125 12.125 C0.90070313 11.05507813 0.67640625 9.98515625 0.4453125 8.8828125 C-0.01890885 5.87759009 -0.08156443 3.03600917 0 0 Z " fill="#ECECEC" transform="translate(228,410)"/>
<path d="M0 0 C16.43402383 4.78938655 32.24469071 8.08698854 49.15966797 3.62939453 C49.15966797 2.96939453 49.15966797 2.30939453 49.15966797 1.62939453 C49.81966797 1.62939453 50.47966797 1.62939453 51.15966797 1.62939453 C50.82966797 3.27939453 50.49966797 4.92939453 50.15966797 6.62939453 C48.50966797 6.62939453 46.85966797 6.62939453 45.15966797 6.62939453 C45.15966797 7.28939453 45.15966797 7.94939453 45.15966797 8.62939453 C37.33784652 9.35260704 29.93288797 9.94688945 22.15966797 8.62939453 C21.66466797 8.13439453 21.66466797 8.13439453 21.15966797 7.62939453 C19.14655348 7.23370345 17.12369589 6.88687262 15.09716797 6.56689453 C13.99244141 6.39029297 12.88771484 6.21369141 11.74951172 6.03173828 C10.89486328 5.89896484 10.04021484 5.76619141 9.15966797 5.62939453 C9.15966797 4.96939453 9.15966797 4.30939453 9.15966797 3.62939453 C8.55123047 3.59201172 7.94279297 3.55462891 7.31591797 3.51611328 C1.65693118 3.09168927 -3.72824873 2.26132261 -9.27783203 1.06689453 C-23.22014468 -1.78057416 -37.75931479 -0.67613025 -51.84033203 0.62939453 C-51.51033203 -0.03060547 -51.18033203 -0.69060547 -50.84033203 -1.37060547 C-35.0400784 -6.13716243 -15.54150884 -4.7007551 0 0 Z " fill="#F6F6F6" transform="translate(541.84033203125,429.37060546875)"/>
<path d="M0 0 C2.4375 0.8125 2.4375 0.8125 4.4375 3.8125 C4.4375 4.8025 4.4375 5.7925 4.4375 6.8125 C5.0975 6.8125 5.7575 6.8125 6.4375 6.8125 C6.540625 7.451875 6.64375 8.09125 6.75 8.75 C6.976875 9.430625 7.20375 10.11125 7.4375 10.8125 C8.4275 11.1425 9.4175 11.4725 10.4375 11.8125 C10.4375 12.4725 10.4375 13.1325 10.4375 13.8125 C11.4275 14.1425 12.4175 14.4725 13.4375 14.8125 C15.63014201 19.10674006 16.11127209 23.56836043 16.77734375 28.2890625 C17.19650732 30.85243331 17.19650732 30.85243331 18.96044922 32.15112305 C20.99622464 34.44094978 20.78296075 35.89093022 20.73046875 38.91796875 C20.72080078 39.90087891 20.71113281 40.88378906 20.70117188 41.89648438 C20.67603516 42.92064453 20.65089844 43.94480469 20.625 45 C20.60469727 46.55364258 20.60469727 46.55364258 20.58398438 48.13867188 C20.54861389 50.69713699 20.49925544 53.2545578 20.4375 55.8125 C21.0975 55.8125 21.7575 55.8125 22.4375 55.8125 C22.7675 57.4625 23.0975 59.1125 23.4375 60.8125 C24.0975 60.8125 24.7575 60.8125 25.4375 60.8125 C26.0975 62.4625 26.7575 64.1125 27.4375 65.8125 C23.17259443 64.39086481 21.97548946 62.17450678 19.71484375 58.3828125 C17.70024514 52.75179375 17.81687404 47.06543724 17.92724609 41.12597656 C17.93321265 38.60625455 17.91595189 36.28760703 17.4375 33.8125 C14.9955221 31.64216271 14.9955221 31.64216271 12.4375 29.8125 C12.01002036 27.09431909 11.82577645 24.89220432 11.875 22.1875 C11.9065223 19.62691908 11.77057274 17.37505961 11.4375 14.8125 C9.56462232 13.404241 9.56462232 13.404241 7.4375 12.8125 C6.1875 10.6875 6.1875 10.6875 5.4375 8.8125 C4.7775 8.8125 4.1175 8.8125 3.4375 8.8125 C1.4575 5.3475 1.4575 5.3475 -0.5625 1.8125 C-1.5525 1.8125 -2.5425 1.8125 -3.5625 1.8125 C-3.5625 5.1125 -3.5625 8.4125 -3.5625 11.8125 C-4.2225 11.8125 -4.8825 11.8125 -5.5625 11.8125 C-5.64340971 10.18831255 -5.70164995 8.56298255 -5.75 6.9375 C-5.78480469 6.03257812 -5.81960937 5.12765625 -5.85546875 4.1953125 C-5.75878906 3.40898437 -5.66210938 2.62265625 -5.5625 1.8125 C-2.5625 -0.1875 -2.5625 -0.1875 0 0 Z " fill="#F1F1F1" transform="translate(162.5625,135.1875)"/>
<path d="M0 0 C1.32 0.33 2.64 0.66 4 1 C4 1.66 4 2.32 4 3 C4.99 3.33 5.98 3.66 7 4 C9.32265612 6.58072903 10 7.45176068 10 11 C10.66 11 11.32 11 12 11 C13.45184478 15.53701494 14.23509196 19.18061476 14 24 C14.66 24 15.32 24 16 24 C16.33 27.96 16.66 31.92 17 36 C17.66 36 18.32 36 19 36 C19.15855469 36.6290625 19.31710937 37.258125 19.48046875 37.90625 C20.97374898 43.38436089 22.76514829 47.7054771 26.109375 52.30859375 C26.40328125 52.86675781 26.6971875 53.42492187 27 54 C26.67 54.99 26.34 55.98 26 57 C24.88125004 55.53183224 23.78082718 54.0496966 22.6875 52.5625 C22.07261719 51.73878906 21.45773437 50.91507812 20.82421875 50.06640625 C16.72145514 43.16989783 15.3208457 35.3233053 13.625 27.5625 C12.09500048 20.79844724 10.45453561 14.68389927 6.91796875 8.64453125 C6 7 6 7 6 5 C4.68 5 3.36 5 2 5 C1.34 3.35 0.68 1.7 0 0 Z " fill="#F7F7F7" transform="translate(360,221)"/>
<path d="M0 0 C1.88149973 0.01507144 3.7630111 0.0287555 5.64453125 0.04101562 C10.2216453 0.07383247 14.79819231 0.12547933 19.375 0.1875 C19.375 0.5175 19.375 0.8475 19.375 1.1875 C10.465 1.1875 1.555 1.1875 -7.625 1.1875 C-7.625 1.8475 -7.625 2.5075 -7.625 3.1875 C-17.03 3.6825 -17.03 3.6825 -26.625 4.1875 C-26.625 4.8475 -26.625 5.5075 -26.625 6.1875 C-27.285 6.1875 -27.945 6.1875 -28.625 6.1875 C-28.955 7.5075 -29.285 8.8275 -29.625 10.1875 C-30.615 9.1975 -31.605 8.2075 -32.625 7.1875 C-31.70095291 4.88865838 -31.09744005 3.48397527 -28.96728516 2.1472168 C-19.58161105 -0.86036472 -9.73588075 -0.13590913 0 0 Z " fill="#E9E9E9" transform="translate(492.625,349.8125)"/>
<path d="M0 0 C20.76940802 -1.82747585 39.84436449 7.78337769 58 17 C58 17.33 58 17.66 58 18 C55.36 17.67 52.72 17.34 50 17 C50 16.34 50 15.68 50 15 C49.13375 14.896875 48.2675 14.79375 47.375 14.6875 C43.81683648 13.96268891 41.20448611 12.6719058 38 11 C35.76474965 10.31363375 35.76474965 10.31363375 34 10 C34 9.34 34 8.68 34 8 C32.39125 7.814375 32.39125 7.814375 30.75 7.625 C27.49907407 7.08317901 25.82195244 6.45649158 23 5 C21.00889599 4.61709538 19.00899487 4.27395385 17 4 C17 3.34 17 2.68 17 2 C11.39 1.67 5.78 1.34 0 1 C0 0.67 0 0.34 0 0 Z " fill="#EDEDED" transform="translate(336,405)"/>
<path d="M0 0 C0.66 0 1.32 0 2 0 C2 0.66 2 1.32 2 2 C2.66 2 3.32 2 4 2 C4 2.66 4 3.32 4 4 C5.98 3.67 7.96 3.34 10 3 C10 3.99 10 4.98 10 6 C10.66 6.33 11.32 6.66 12 7 C11.01 7.33 10.02 7.66 9 8 C8.26676204 10.01508358 8.26676204 10.01508358 8 12 C6.54096742 11.69078116 5.08279278 11.37751201 3.625 11.0625 C2.81289063 10.88847656 2.00078125 10.71445312 1.1640625 10.53515625 C-1 10 -1 10 -3 9 C-2.67 7.68 -2.34 6.36 -2 5 C-2.66 4.67 -3.32 4.34 -4 4 C-2.68 3.67 -1.36 3.34 0 3 C0 2.01 0 1.02 0 0 Z " fill="#1D1D1D" transform="translate(569,354)"/>
<path d="M0 0 C0 0.66 0 1.32 0 2 C-7.80803895 3.27786205 -15.61362681 3.11158147 -23.5 3.0625 C-24.90885258 3.05747533 -26.31770689 3.05291413 -27.7265625 3.04882812 C-31.15108638 3.0371003 -34.57552047 3.02068691 -38 3 C-34.8132773 0.17509478 -32.68131192 -0.40500041 -28.45703125 -0.546875 C-27.38259766 -0.58683594 -26.30816406 -0.62679688 -25.20117188 -0.66796875 C-24.08291016 -0.69503906 -22.96464844 -0.72210938 -21.8125 -0.75 C-20.16411133 -0.81380859 -20.16411133 -0.81380859 -18.48242188 -0.87890625 C-12.20085238 -1.08117504 -6.22467273 -0.86764182 0 0 Z " fill="#383838" transform="translate(458,430)"/>
<path d="M0 0 C4.55482597 1.42136413 8.94816274 2.92490225 13.25 5 C25.65143393 10.54242167 38.64888421 10.65727529 52 11 C52 11.33 52 11.66 52 12 C47.79172527 12.05828635 43.58355511 12.093693 39.375 12.125 C37.59029297 12.15013672 37.59029297 12.15013672 35.76953125 12.17578125 C34.61582031 12.18222656 33.46210938 12.18867188 32.2734375 12.1953125 C30.68668213 12.21102295 30.68668213 12.21102295 29.06787109 12.22705078 C25.74806832 11.98135473 23.11176182 11.15352112 20 10 C18.865625 9.690625 17.73125 9.38125 16.5625 9.0625 C12.86293828 7.95912194 9.51703565 6.57907723 6 5 C6 4.34 6 3.68 6 3 C3.03 2.505 3.03 2.505 0 2 C0 1.34 0 0.68 0 0 Z " fill="#F4F4F4" transform="translate(393,423)"/>
<path d="M0 0 C2.64 0.33 5.28 0.66 8 1 C8 1.66 8 2.32 8 3 C10.64 3.33 13.28 3.66 16 4 C16.33 5.65 16.66 7.3 17 9 C10.25 13 10.25 13 8 13 C8.875 9.125 8.875 9.125 10 8 C9.34 7.67 8.68 7.34 8 7 C8.33 6.34 8.66 5.68 9 5 C7.35 5 5.7 5 4 5 C4 4.34 4 3.68 4 3 C3.34 3 2.68 3 2 3 C2 2.34 2 1.68 2 1 C1.34 0.67 0.68 0.34 0 0 Z " fill="#2A2A2A" transform="translate(569,353)"/>
<path d="M0 0 C12.69045192 -0.18043297 25.32683275 0.37897682 38 1 C38 1.33 38 1.66 38 2 C4.66587488 3.77756787 4.66587488 3.77756787 0 1 C0 0.67 0 0.34 0 0 Z " fill="#C9C9C9" transform="translate(231,410)"/>
<path d="M0 0 C0 0.33 0 0.66 0 1 C5.445 1.495 5.445 1.495 11 2 C11 2.33 11 2.66 11 3 C6.58334775 3.02945039 2.16672133 3.04694816 -2.25 3.0625 C-3.48492187 3.07087891 -4.71984375 3.07925781 -5.9921875 3.08789062 C-13.71691504 3.10821886 -21.31501847 2.79005315 -29 2 C-29 1.67 -29 1.34 -29 1 C-19.31629705 0.30386731 -9.71614177 -0.14973506 0 0 Z " fill="#202020" transform="translate(286,409)"/>
<path d="M0 0 C2.4375 0.8125 2.4375 0.8125 4.4375 3.8125 C4.4375 4.8025 4.4375 5.7925 4.4375 6.8125 C5.0975 6.8125 5.7575 6.8125 6.4375 6.8125 C6.540625 7.451875 6.64375 8.09125 6.75 8.75 C6.976875 9.430625 7.20375 10.11125 7.4375 10.8125 C8.4275 11.1425 9.4175 11.4725 10.4375 11.8125 C10.1075 12.8025 9.7775 13.7925 9.4375 14.8125 C8.06187146 13.52284824 6.72983607 12.18560707 5.4375 10.8125 C5.4375 10.1525 5.4375 9.4925 5.4375 8.8125 C4.7775 8.8125 4.1175 8.8125 3.4375 8.8125 C1.4575 5.3475 1.4575 5.3475 -0.5625 1.8125 C-1.5525 1.8125 -2.5425 1.8125 -3.5625 1.8125 C-3.5625 5.1125 -3.5625 8.4125 -3.5625 11.8125 C-4.2225 11.8125 -4.8825 11.8125 -5.5625 11.8125 C-5.64340971 10.18831255 -5.70164995 8.56298255 -5.75 6.9375 C-5.78480469 6.03257812 -5.81960937 5.12765625 -5.85546875 4.1953125 C-5.75878906 3.40898437 -5.66210938 2.62265625 -5.5625 1.8125 C-2.5625 -0.1875 -2.5625 -0.1875 0 0 Z " fill="#BEBEBE" transform="translate(162.5625,135.1875)"/>
<path d="M0 0 C0.94875 0.04125 1.8975 0.0825 2.875 0.125 C3.535 1.775 4.195 3.425 4.875 5.125 C-4.49249815 5.3070896 -13.7837308 4.73826035 -23.125 4.125 C-23.125 3.795 -23.125 3.465 -23.125 3.125 C-21.84882813 3.07601563 -20.57265625 3.02703125 -19.2578125 2.9765625 C-17.58851928 2.90153809 -15.91924954 2.82599012 -14.25 2.75 C-13.40824219 2.7190625 -12.56648438 2.688125 -11.69921875 2.65625 C-10.89355469 2.61757813 -10.08789062 2.57890625 -9.2578125 2.5390625 C-8.51418457 2.5076416 -7.77055664 2.4762207 -7.00439453 2.44384766 C-3.75703768 1.8929191 -3.68292465 0.14731699 0 0 Z " fill="#222222" transform="translate(507.125,344.875)"/>
<path d="M0 0 C0.66 0 1.32 0 2 0 C1.67 1.65 1.34 3.3 1 5 C-0.65 5 -2.3 5 -4 5 C-4 5.66 -4 6.32 -4 7 C-10.41688675 7.10349817 -16.62694402 6.74507544 -23 6 C-23 5.67 -23 5.34 -23 5 C-21.75863281 4.86722656 -20.51726563 4.73445313 -19.23828125 4.59765625 C-17.59634139 4.41938849 -15.95441501 4.24099654 -14.3125 4.0625 C-13.08756836 3.93198242 -13.08756836 3.93198242 -11.83789062 3.79882812 C-7.84549781 3.36241272 -3.92347148 2.88697624 0 2 C0 1.34 0 0.68 0 0 Z " fill="#E0E0E0" transform="translate(591,431)"/>
<path d="M0 0 C0.66 0 1.32 0 2 0 C2 0.66 2 1.32 2 2 C6.455 2.99 6.455 2.99 11 4 C11 4.66 11 5.32 11 6 C13.31 6.33 15.62 6.66 18 7 C18 7.66 18 8.32 18 9 C20.97 9.495 20.97 9.495 24 10 C24 10.66 24 11.32 24 12 C26.97 12.495 26.97 12.495 30 13 C26.18510326 14.46726798 23.70988378 13.43336419 20 12 C20 11.34 20 10.68 20 10 C17.03 9.505 17.03 9.505 14 9 C14 8.34 14 7.68 14 7 C11.69 6.67 9.38 6.34 7 6 C7 5.34 7 4.68 7 4 C4.03 3.505 4.03 3.505 1 3 C0.67 2.01 0.34 1.02 0 0 Z " fill="#9F9F9F" transform="translate(464,360)"/>
<path d="M0 0 C1.32 0.33 2.64 0.66 4 1 C4 1.66 4 2.32 4 3 C5.32 3.33 6.64 3.66 8 4 C8 4.66 8 5.32 8 6 C8.825 6.0825 9.65 6.165 10.5 6.25 C14.76753921 7.16447269 18.19236894 8.92223178 22 11 C18.23375329 12.25541557 16.62811066 11.37061958 13 10 C13 9.34 13 8.68 13 8 C12.31292969 7.97421875 11.62585938 7.9484375 10.91796875 7.921875 C10.01691406 7.86515625 9.11585938 7.8084375 8.1875 7.75 C6.84751953 7.68039062 6.84751953 7.68039062 5.48046875 7.609375 C3 7 3 7 1.17578125 5.140625 C0 3 0 3 0 0 Z " fill="#878787" transform="translate(530,333)"/>
<path d="M0 0 C4.875 1.75 4.875 1.75 6 4 C6.99 4.33 7.98 4.66 9 5 C9 5.66 9 6.32 9 7 C11.97 7.495 11.97 7.495 15 8 C15 8.66 15 9.32 15 10 C18.3 10.33 21.6 10.66 25 11 C25 11.33 25 11.66 25 12 C22.69 12.33 20.38 12.66 18 13 C18 12.34 18 11.68 18 11 C17.2575 11.20625 16.515 11.4125 15.75 11.625 C12.65256571 12.0473774 11.54868779 11.72946672 9 10 C8.67 9.34 8.34 8.68 8 8 C7.01 7.67 6.02 7.34 5 7 C3.61328125 5.37109375 3.61328125 5.37109375 2.3125 3.4375 C1.87550781 2.79683594 1.43851563 2.15617188 0.98828125 1.49609375 C0.49908203 0.75552734 0.49908203 0.75552734 0 0 Z " fill="#8A8A8A" transform="translate(190,201)"/>
<path d="M0 0 C11.94460207 -0.69806116 21.16592996 0.58296498 32 6 C32 6.66 32 7.32 32 8 C31.41992188 7.79503906 30.83984375 7.59007812 30.2421875 7.37890625 C25.8378016 5.85990187 21.64322223 4.5952849 17 4 C17 3.34 17 2.68 17 2 C11.39 1.67 5.78 1.34 0 1 C0 0.67 0 0.34 0 0 Z " fill="#D1D1D1" transform="translate(336,405)"/>
<path d="M0 0 C3 1 3 1 4.1171875 3.2109375 C5.00436821 6.01380047 5.62244598 8.7293316 6.125 11.625 C6.29257813 12.56601563 6.46015625 13.50703125 6.6328125 14.4765625 C7 17 7 17 7 20 C3.67556492 17.84546962 2.17751165 16.82666763 1.328125 12.87109375 C1.30234375 11.73800781 1.2765625 10.60492188 1.25 9.4375 C1.12005633 4.63371672 1.12005633 4.63371672 0 0 Z " fill="#E6E6E6" transform="translate(173,149)"/>
<path d="M0 0 C1.93945312 -0.37231445 1.93945312 -0.37231445 4.28125 -0.36328125 C5.54388672 -0.36231445 5.54388672 -0.36231445 6.83203125 -0.36132812 C7.71246094 -0.34521484 8.59289062 -0.32910156 9.5 -0.3125 C10.38042969 -0.31572266 11.26085937 -0.31894531 12.16796875 -0.32226562 C18.73302968 -0.26697032 18.73302968 -0.26697032 21 2 C13.41 2.33 5.82 2.66 -2 3 C-1.34 2.01 -0.68 1.02 0 0 Z " fill="#FDFDFD" transform="translate(332,406)"/>
<path d="M0 0 C0.99 0.33 1.98 0.66 3 1 C3 1.66 3 2.32 3 3 C4.32 3.33 5.64 3.66 7 4 C7 4.66 7 5.32 7 6 C7.56203125 6.23460937 8.1240625 6.46921875 8.703125 6.7109375 C11.54635891 8.30663 13.48098127 10.28924543 15.75 12.625 C16.54921875 13.44226563 17.3484375 14.25953125 18.171875 15.1015625 C18.77515625 15.72804688 19.3784375 16.35453125 20 17 C15.8940611 17 14.97513125 15.37001373 12.0625 12.5625 C8.96064199 9.57292644 7.12126742 8.00562517 3 7 C1.25 3.4375 1.25 3.4375 0 0 Z " fill="#E3E3E3" transform="translate(528,392)"/>
<path d="M0 0 C4.56454251 0.54339792 7.9728176 1.79463821 12 4 C12 4.66 12 5.32 12 6 C13.65 6.33 15.3 6.66 17 7 C17 7.66 17 8.32 17 9 C19.475 9.495 19.475 9.495 22 10 C21.67 10.66 21.34 11.32 21 12 C17.5625 11.1875 17.5625 11.1875 14 10 C13.67 9.01 13.34 8.02 13 7 C11.35 6.67 9.7 6.34 8 6 C8 5.34 8 4.68 8 4 C6.35 3.67 4.7 3.34 3 3 C3 2.34 3 1.68 3 1 C2.01 0.67 1.02 0.34 0 0 Z " fill="#9D9D9D" transform="translate(485,304)"/>
<path d="M0 0 C2.52168035 2.52168035 2.37304234 4.41099842 2.71484375 7.84765625 C2.98090864 10.27688036 2.98090864 10.27688036 4.0625 13.625 C4.98063509 16.93028632 5.16623782 19.59212474 5 23 C0.85615269 18.85615269 0.2223348 11.06277529 -0.19140625 5.36328125 C-0.18819459 3.57438559 -0.10504774 1.78581158 0 0 Z " fill="#F7F7F7" transform="translate(243,480)"/>
<path d="M0 0 C0 0.33 0 0.66 0 1 C-1.39025391 1.18175781 -1.39025391 1.18175781 -2.80859375 1.3671875 C-4.00613281 1.53476562 -5.20367187 1.70234375 -6.4375 1.875 C-7.63246094 2.03742188 -8.82742188 2.19984375 -10.05859375 2.3671875 C-11.51458984 2.68042969 -11.51458984 2.68042969 -13 3 C-13.33 3.66 -13.66 4.32 -14 5 C-16.97 5 -19.94 5 -23 5 C-22.67 4.01 -22.34 3.02 -22 2 C-7.40318907 -0.29612756 -7.40318907 -0.29612756 0 0 Z " fill="#D4D4D4" transform="translate(504,426)"/>
<path d="M0 0 C3.41021743 0.78697325 6.68885166 1.87119943 10 3 C10 3.66 10 4.32 10 5 C10.78375 5.144375 11.5675 5.28875 12.375 5.4375 C15 6 15 6 17 7 C17 7.66 17 8.32 17 9 C18.32 9.33 19.64 9.66 21 10 C20.67 10.66 20.34 11.32 20 12 C18.68 12 17.36 12 16 12 C16 11.34 16 10.68 16 10 C15.34 10 14.68 10 14 10 C14 9.01 14 8.02 14 7 C12.35 6.67 10.7 6.34 9 6 C9 5.34 9 4.68 9 4 C4.545 3.01 4.545 3.01 0 2 C0 1.34 0 0.68 0 0 Z " fill="#9B9B9B" transform="translate(507,380)"/>
<path d="M0 0 C2.35171131 0.59861742 4.6859378 1.26924352 7 2 C7.33 2.66 7.66 3.32 8 4 C3.2250791 4.95498418 -1.15139376 5.24243031 -6 5 C-6.66 4.34 -7.32 3.68 -8 3 C-6.865625 2.690625 -5.73125 2.38125 -4.5625 2.0625 C-1.21224901 1.37075469 -1.21224901 1.37075469 0 0 Z " fill="#363636" transform="translate(568,363)"/>
<path d="M0 0 C1.5 1.0625 1.5 1.0625 3 3 C3.1875 6.6875 3.1875 6.6875 3 10 C3.66 10 4.32 10 5 10 C5.33 13.3 5.66 16.6 6 20 C5.34 20.33 4.68 20.66 4 21 C3.32781493 18.25124318 2.66207565 15.50119274 2 12.75 C1.80921875 11.97269531 1.6184375 11.19539062 1.421875 10.39453125 C1.24140625 9.64042969 1.0609375 8.88632812 0.875 8.109375 C0.70742188 7.41811523 0.53984375 6.72685547 0.3671875 6.01464844 C0 4 0 4 0 0 Z " fill="#F4F4F4" transform="translate(256,550)"/>
<path d="M0 0 C2.64 0.33 5.28 0.66 8 1 C8 1.66 8 2.32 8 3 C10.64 3.33 13.28 3.66 16 4 C15.67 4.99 15.34 5.98 15 7 C13.68 6.67 12.36 6.34 11 6 C11 5.34 11 4.68 11 4 C8.69 4.33 6.38 4.66 4 5 C4 4.34 4 3.68 4 3 C3.34 3 2.68 3 2 3 C2 2.34 2 1.68 2 1 C1.34 0.67 0.68 0.34 0 0 Z " fill="#888888" transform="translate(569,353)"/>
<path d="M0 0 C1.32 0.33 2.64 0.66 4 1 C4 5.62 4 10.24 4 15 C3.34 14.67 2.68 14.34 2 14 C0.52819204 9.17574056 -0.25376143 5.07522852 0 0 Z " fill="#F1F1F1" transform="translate(228,410)"/>
<path d="M0 0 C0.54140625 0.14308594 1.0828125 0.28617187 1.640625 0.43359375 C4.32992832 1.07920465 7.02745245 1.5763308 9.75 2.0625 C10.73484375 2.23910156 11.7196875 2.41570312 12.734375 2.59765625 C13.85585938 2.79681641 13.85585938 2.79681641 15 3 C15 4.32 15 5.64 15 7 C12.625 7.125 12.625 7.125 10 7 C8 5 8 5 7 3 C5.515 2.7525 5.515 2.7525 4 2.5 C2.515 2.2525 2.515 2.2525 1 2 C0.67 1.34 0.34 0.68 0 0 Z " fill="#727272" transform="translate(576,426)"/>
<path d="M0 0 C2.1640625 -0.29296875 2.1640625 -0.29296875 4.625 -0.1875 C5.44226563 -0.16042969 6.25953125 -0.13335937 7.1015625 -0.10546875 C8.04128906 -0.05326172 8.04128906 -0.05326172 9 0 C9 0.33 9 0.66 9 1 C12.63 1.33 16.26 1.66 20 2 C20 2.33 20 2.66 20 3 C12.74 3 5.48 3 -2 3 C-1.34 2.01 -0.68 1.02 0 0 Z " fill="#535353" transform="translate(481,347)"/>
<path d="M0 0 C3 1 3 1 4.5703125 3.58203125 C5.33988281 5.18111328 5.33988281 5.18111328 6.125 6.8125 C6.64320313 7.87082031 7.16140625 8.92914063 7.6953125 10.01953125 C8.73132822 12.38623781 9.49976919 14.48054482 10 17 C5.1129901 12.81113437 2.46276408 7.92111364 0 2 C0 1.34 0 0.68 0 0 Z " fill="#ECECEC" transform="translate(377,261)"/>
<path d="M0 0 C2.97 0.495 2.97 0.495 6 1 C6.33 1.99 6.66 2.98 7 4 C7.66 4.33 8.32 4.66 9 5 C6.04335481 6.4783226 3.25770263 6.06032783 0 6 C0.66 5.01 1.32 4.02 2 3 C1.34 3 0.68 3 0 3 C0 2.01 0 1.02 0 0 Z " fill="#292929" transform="translate(579,429)"/>
<path d="M0 0 C4.60853797 0.72008406 8.67237409 2.31295939 13 4 C13 4.66 13 5.32 13 6 C13.99 6.33 14.98 6.66 16 7 C14.54119891 6.85892253 13.08296449 6.71197585 11.625 6.5625 C10.40683594 6.44068359 10.40683594 6.44068359 9.1640625 6.31640625 C7 6 7 6 5 5 C5 4.34 5 3.68 5 3 C2.525 2.01 2.525 2.01 0 1 C0 0.67 0 0.34 0 0 Z " fill="#9A9A9A" transform="translate(560,419)"/>
<path d="M0 0 C1.32 1.32 2.64 2.64 4 4 C3.4375 5.9375 3.4375 5.9375 2 8 C-1.625 8.75 -1.625 8.75 -5 9 C-4.67 8.01 -4.34 7.02 -4 6 C-1.4375 4.8125 -1.4375 4.8125 1 4 C0.67 2.68 0.34 1.36 0 0 Z " fill="#EBEBEB" transform="translate(585,358)"/>
<path d="M0 0 C1.98 0.66 3.96 1.32 6 2 C6 2.66 6 3.32 6 4 C7.8871875 4.1546875 7.8871875 4.1546875 9.8125 4.3125 C12.60499657 4.64858808 13.74433121 4.80025876 16 6.5625 C16.33 7.036875 16.66 7.51125 17 8 C11.66666667 6.66666667 6.33333333 5.33333333 1 4 C0.67 2.68 0.34 1.36 0 0 Z " fill="#959595" transform="translate(552,345)"/>
<path d="M0 0 C3.33333333 1.66666667 6.66666667 3.33333333 10 5 C10 5.66 10 6.32 10 7 C11.32 7.33 12.64 7.66 14 8 C13.67 8.66 13.34 9.32 13 10 C10.36 9.34 7.72 8.68 5 8 C5 7.01 5 6.02 5 5 C3.35178756 3.96986723 1.68496298 2.96885372 0 2 C0 1.34 0 0.68 0 0 Z " fill="#9D9D9D" transform="translate(508,316)"/>
<path d="M0 0 C0.598125 0.639375 1.19625 1.27875 1.8125 1.9375 C3.90810337 4.20310389 3.90810337 4.20310389 7 5 C8.37195574 6.29355827 9.71182656 7.62298702 11 9 C10.67 9.66 10.34 10.32 10 11 C7.5 9.625 7.5 9.625 5 8 C5 7.34 5 6.68 5 6 C4.01 6 3.02 6 2 6 C1.67 6.66 1.34 7.32 1 8 C0.67 5.36 0.34 2.72 0 0 Z " fill="#797979" transform="translate(382,273)"/>
<path d="M0 0 C0.33 0.66 0.66 1.32 1 2 C1.70125 1.67 2.4025 1.34 3.125 1 C6.26003116 -0.09044562 8.70563182 -0.15322643 12 0 C10.68 0.33 9.36 0.66 8 1 C8.33 1.99 8.66 2.98 9 4 C2.375 4.125 2.375 4.125 -1 3 C-0.67 2.01 -0.34 1.02 0 0 Z " fill="#1F1F1F" transform="translate(248,602)"/>
<path d="M0 0 C0.99 0.33 1.98 0.66 3 1 C3.33 5.29 3.66 9.58 4 14 C1.06540254 10.08720339 0.61003626 9.2725511 0.3125 4.75 C0.24675781 3.85796875 0.18101562 2.9659375 0.11328125 2.046875 C0.07589844 1.37140625 0.03851563 0.6959375 0 0 Z " fill="#F5F5F5" transform="translate(254,538)"/>
<path d="M0 0 C5.75 -0.125 5.75 -0.125 8 1 C8 1.99 8 2.98 8 4 C5.36 4.66 2.72 5.32 0 6 C0 5.34 0 4.68 0 4 C0.66 4 1.32 4 2 4 C2 3.34 2 2.68 2 2 C1.34 1.34 0.68 0.68 0 0 Z " fill="#2F2F2F" transform="translate(464,347)"/>
<path d="M0 0 C1.32 0.33 2.64 0.66 4 1 C4 1.66 4 2.32 4 3 C4.99 3.33 5.98 3.66 7 4 C9.24064723 6.32363416 9.96556146 7.49490144 10.1875 10.75 C10.125625 11.4925 10.06375 12.235 10 13 C7.84622436 10.37801226 6.59927826 8.35595828 6 5 C4.68 5 3.36 5 2 5 C1.34 3.35 0.68 1.7 0 0 Z " fill="#C1C1C1" transform="translate(360,221)"/>
<path d="M0 0 C0.66 0.33 1.32 0.66 2 1 C1.34 4.63 0.68 8.26 0 12 C-0.66 11.67 -1.32 11.34 -2 11 C-1.979375 10.21625 -1.95875 9.4325 -1.9375 8.625 C-1.81315937 6.01885039 -1.81315937 6.01885039 -3 4 C-2.01 2.68 -1.02 1.36 0 0 Z " fill="#1D1D1D" transform="translate(172,151)"/>
<path d="M0 0 C0.99 0 1.98 0 3 0 C3 4.29 3 8.58 3 13 C2.34 13 1.68 13 1 13 C0.67 8.71 0.34 4.42 0 0 Z " fill="#6F6F6F" transform="translate(241,593)"/>
<path d="M0 0 C1.5 1.125 1.5 1.125 3 3 C3.1875 6.1875 3.1875 6.1875 3 9 C3.66 9 4.32 9 5 9 C4.67 11.31 4.34 13.62 4 16 C3.67 16 3.34 16 3 16 C2.49595192 13.89679937 1.99689492 11.79240209 1.5 9.6875 C1.08234375 7.92986328 1.08234375 7.92986328 0.65625 6.13671875 C0 3 0 3 0 0 Z " fill="#E6E6E6" transform="translate(246,501)"/>
<path d="M0 0 C-0.99 1.485 -0.99 1.485 -2 3 C-2.66 3 -3.32 3 -4 3 C-4.33 4.32 -4.66 5.64 -5 7 C-5.99 6.01 -6.98 5.02 -8 4 C-7.25 2.0625 -7.25 2.0625 -6 0 C-3.40292416 -1.05506206 -2.5386068 -1.2693034 0 0 Z " fill="#ECECEC" transform="translate(468,353)"/>
<path d="M0 0 C1.32 0.33 2.64 0.66 4 1 C4 1.66 4 2.32 4 3 C5.65 3.33 7.3 3.66 9 4 C9 4.66 9 5.32 9 6 C10.65 6.33 12.3 6.66 14 7 C11 8 11 8 7 8 C7 7.34 7 6.68 7 6 C6.34 6 5.68 6 5 6 C5 5.34 5 4.68 5 4 C4.01 4 3.02 4 2 4 C1.34 2.68 0.68 1.36 0 0 Z " fill="#9C9C9C" transform="translate(393,284)"/>
<path d="M0 0 C0.33 0 0.66 0 1 0 C1 1.65 1 3.3 1 5 C2.65 5.33 4.3 5.66 6 6 C6.33 8.64 6.66 11.28 7 14 C6.34 12.68 5.68 11.36 5 10 C4.34 10 3.68 10 3 10 C0.52653696 7.52653696 0.01686856 6.29238832 -0.1875 2.75 C-0.125625 1.8425 -0.06375 0.935 0 0 Z " fill="#B2B2B2" transform="translate(147,178)"/>
<path d="M0 0 C3 3 3 3 3.29296875 5.48046875 C3.25816406 6.37378906 3.22335938 7.26710938 3.1875 8.1875 C3.16042969 9.08855469 3.13335937 9.98960937 3.10546875 10.91796875 C3.07066406 11.60503906 3.03585938 12.29210937 3 13 C2.34 13 1.68 13 1 13 C0.67 8.71 0.34 4.42 0 0 Z " fill="#7D7D7D" transform="translate(225,514)"/>
<path d="M0 0 C2.26562673 2.26562673 2.94462749 3.84160705 3.09765625 7.04296875 C3.06510417 9.02864583 3.03255208 11.01432292 3 13 C2.34 13 1.68 13 1 13 C0.67 8.71 0.34 4.42 0 0 Z " fill="#6D6D6D" transform="translate(208,429)"/>
<path d="M0 0 C-0.33 0.99 -0.66 1.98 -1 3 C-3.97 3 -6.94 3 -10 3 C-10.33 2.34 -10.66 1.68 -11 1 C-7.26562152 0.12132271 -3.83225427 -0.08912219 0 0 Z " fill="#DFDFDF" transform="translate(331,407)"/>
<path d="M0 0 C-0.33 1.65 -0.66 3.3 -1 5 C-4 5 -4 5 -7 4 C-7 2.68 -7 1.36 -7 0 C-4.3333581 -1.33332095 -2.83319697 -0.67102033 0 0 Z " fill="#1A1A1A" transform="translate(527,331)"/>
<path d="M0 0 C2.475 0.495 2.475 0.495 5 1 C5 2.98 5 4.96 5 7 C3.68 7 2.36 7 1 7 C0.67 4.69 0.34 2.38 0 0 Z " fill="#1E1E1E" transform="translate(152,159)"/>
<path d="M0 0 C4.69023454 0.56606279 9.34500026 1.18537505 14 2 C11 4 11 4 7.5625 3.8125 C4.16237111 3.03703201 2.52267597 2.32086189 0 0 Z " fill="#DFDFDF" transform="translate(528,427)"/>
<path d="M0 0 C2.26562673 2.26562673 2.94462749 3.84160705 3.09765625 7.04296875 C3.06510417 9.02864583 3.03255208 11.01432292 3 13 C2.34 12.67 1.68 12.34 1 12 C0.5859375 9.27734375 0.5859375 9.27734375 0.375 5.9375 C0.30023438 4.83277344 0.22546875 3.72804688 0.1484375 2.58984375 C0.09945312 1.73519531 0.05046875 0.88054687 0 0 Z " fill="#747474" transform="translate(192,350)"/>
<path d="M0 0 C2.31 0 4.62 0 7 0 C6.67 1.65 6.34 3.3 6 5 C3.69 4.01 1.38 3.02 -1 2 C-0.67 1.34 -0.34 0.68 0 0 Z " fill="#313131" transform="translate(393,420)"/>
<path d="M0 0 C3.625 -0.1875 3.625 -0.1875 7 0 C6.67 0.99 6.34 1.98 6 3 C3.36 3 0.72 3 -2 3 C-1.34 2.01 -0.68 1.02 0 0 Z " fill="#F2F2F2" transform="translate(332,406)"/>
<path d="M0 0 C0.33 0.66 0.66 1.32 1 2 C2.98 2 4.96 2 7 2 C7 2.33 7 2.66 7 3 C2.59085217 4.10228696 -1.48382401 4.07654536 -6 4 C-4 1 -4 1 -1.875 0.3125 C-1.25625 0.209375 -0.6375 0.10625 0 0 Z " fill="#4A4A4A" transform="translate(310,407)"/>
<path d="M0 0 C0.99 0.33 1.98 0.66 3 1 C3 1.66 3 2.32 3 3 C4.32 3.33 5.64 3.66 7 4 C7 4.99 7 5.98 7 7 C6.01 7.33 5.02 7.66 4 8 C2.68 5.36 1.36 2.72 0 0 Z " fill="#939393" transform="translate(528,392)"/>
<path d="M0 0 C0.66 0 1.32 0 2 0 C2.8723412 2.99480917 3.10829766 5.63575911 3.0625 8.75 C3.05347656 9.54921875 3.04445312 10.3484375 3.03515625 11.171875 C3.01775391 12.07679688 3.01775391 12.07679688 3 13 C2.67 13 2.34 13 2 13 C-0.28571429 4.57142857 -0.28571429 4.57142857 0 0 Z " fill="#848484" transform="translate(236,571)"/>
<path d="M0 0 C3.317124 4.422832 3.30466674 5.71910976 3 11 C2.34 11 1.68 11 1 11 C0.67 7.37 0.34 3.74 0 0 Z " fill="#F6F6F6" transform="translate(261,570)"/>
<path d="M0 0 C3 3 3 3 3.07421875 5.48046875 C2.94660156 6.37378906 2.81898438 7.26710938 2.6875 8.1875 C2.56761719 9.08855469 2.44773438 9.98960937 2.32421875 10.91796875 C2.21722656 11.60503906 2.11023438 12.29210937 2 13 C1.67 13 1.34 13 1 13 C0.67 8.71 0.34 4.42 0 0 Z " fill="#E5E5E5" transform="translate(241,473)"/>
<path d="M0 0 C0.66 0 1.32 0 2 0 C1.67 1.65 1.34 3.3 1 5 C-0.65 5 -2.3 5 -4 5 C-4.33 4.34 -4.66 3.68 -5 3 C-3.35 2.67 -1.7 2.34 0 2 C0 1.34 0 0.68 0 0 Z " fill="#F0F0F0" transform="translate(591,431)"/>
<path d="M0 0 C2.97 0.495 2.97 0.495 6 1 C6 1.99 6 2.98 6 4 C5.01 4.33 4.02 4.66 3 5 C0.8125 3.5625 0.8125 3.5625 -1 2 C-0.67 1.34 -0.34 0.68 0 0 Z " fill="#1F1F1F" transform="translate(465,363)"/>
<path d="M0 0 C1.98 0.66 3.96 1.32 6 2 C5.67 2.99 5.34 3.98 5 5 C2.69 4.34 0.38 3.68 -2 3 C-1.34 2.01 -0.68 1.02 0 0 Z " fill="#3B3B3B" transform="translate(531,354)"/>
<path d="M0 0 C1.65 0.33 3.3 0.66 5 1 C5 1.99 5 2.98 5 4 C4.34 4.66 3.68 5.32 3 6 C2.34 5.34 1.68 4.68 1 4 C0.01 3.34 -0.98 2.68 -2 2 C-1.34 2 -0.68 2 0 2 C0 1.34 0 0.68 0 0 Z " fill="#1A1A1A" transform="translate(161,200)"/>
<path d="M0 0 C3.24208567 0.35049575 4.61527704 0.56221181 6.8125 3.0625 C7.204375 3.701875 7.59625 4.34125 8 5 C5.125 4.75 5.125 4.75 2 4 C0.625 1.9375 0.625 1.9375 0 0 Z " fill="#353535" transform="translate(386,281)"/>
<path d="M0 0 C0.66 0 1.32 0 2 0 C3.3271261 3.9813783 3.06915913 7.85045227 3 12 C2.67 12 2.34 12 2 12 C2 10.02 2 8.04 2 6 C1.34 6 0.68 6 0 6 C0 4.02 0 2.04 0 0 Z " fill="#7A7A7A" transform="translate(170,243)"/>
<path d="M0 0 C0.928125 0.2784375 0.928125 0.2784375 1.875 0.5625 C4.04160178 1.23686176 4.04160178 1.23686176 6 0 C6 0.99 6 1.98 6 3 C6.99 3 7.98 3 9 3 C9 3.66 9 4.32 9 5 C7.68428397 4.7452486 6.37239624 4.47065859 5.0625 4.1875 C4.33160156 4.03667969 3.60070312 3.88585937 2.84765625 3.73046875 C2.23792969 3.48941406 1.62820313 3.24835938 1 3 C0.67 2.01 0.34 1.02 0 0 Z " fill="#333333" transform="translate(365,408)"/>
<path d="M0 0 C4.95 0.99 4.95 0.99 10 2 C7 4 7 4 4.4375 3.6875 C2 3 2 3 0 2 C0 1.34 0 0.68 0 0 Z " fill="#E7E7E7" transform="translate(552,365)"/>
<path d="M0 0 C0.99 0.495 0.99 0.495 2 1 C2 2.32 2 3.64 2 5 C2.66 5 3.32 5 4 5 C4 6.65 4 8.3 4 10 C3.34 10 2.68 10 2 10 C1.34 6.7 0.68 3.4 0 0 Z " fill="#E3E3E3" transform="translate(264,590)"/>
<path d="M0 0 C2.10633718 1.70828921 2.93801608 2.52148416 3.29296875 5.26171875 C3.25816406 6.06222656 3.22335937 6.86273437 3.1875 7.6875 C3.16042969 8.49574219 3.13335937 9.30398438 3.10546875 10.13671875 C3.07066406 10.75160156 3.03585937 11.36648438 3 12 C2.67 12 2.34 12 2 12 C0.86235649 7.73383684 0 4.43513689 0 0 Z " fill="#DBDBDB" transform="translate(256,550)"/>
<path d="M0 0 C1.134375 0.020625 2.26875 0.04125 3.4375 0.0625 C2.7775 1.3825 2.1175 2.7025 1.4375 4.0625 C-0.5625 3.0625 -2.5625 2.0625 -4.5625 1.0625 C-3.5625 0.0625 -3.5625 0.0625 0 0 Z " fill="#1A1A1A" transform="translate(575.5625,427.9375)"/>
<path d="M0 0 C1.32 0 2.64 0 4 0 C4 0.66 4 1.32 4 2 C6.97 2.495 6.97 2.495 10 3 C6.18510326 4.46726798 3.70988378 3.43336419 0 2 C0 1.34 0 0.68 0 0 Z " fill="#929292" transform="translate(484,370)"/>
<path d="M0 0 C1.32 1.32 2.64 2.64 4 4 C2.1875 4.625 2.1875 4.625 0 5 C-0.99 4.34 -1.98 3.68 -3 3 C-3 2.34 -3 1.68 -3 1 C-2.01 0.67 -1.02 0.34 0 0 Z " fill="#1E1E1E" transform="translate(483,370)"/>
<path d="M0 0 C2 3 2 3 1.625 5.1875 C1.41875 5.785625 1.2125 6.38375 1 7 C0.54625 6.505 0.0925 6.01 -0.375 5.5 C-1.87635519 3.77390663 -1.87635519 3.77390663 -4 4 C-3.67 3.01 -3.34 2.02 -3 1 C-2.01 1.33 -1.02 1.66 0 2 C0 1.34 0 0.68 0 0 Z " fill="#191919" transform="translate(381,273)"/>
<path d="M0 0 C0.66 0.33 1.32 0.66 2 1 C2 1.66 2 2.32 2 3 C2.99 3.66 3.98 4.32 5 5 C2.69 5 0.38 5 -2 5 C-2.33 4.34 -2.66 3.68 -3 3 C-2.01 2.01 -1.02 1.02 0 0 Z " fill="#202020" transform="translate(409,424)"/>
<path d="M0 0 C3 2 3 2 3.6875 4.625 C3.8421875 5.800625 3.8421875 5.800625 4 7 C3.01 6.67 2.02 6.34 1 6 C0.67 4.02 0.34 2.04 0 0 Z " fill="#3A3A3A" transform="translate(188,200)"/>
<path d="M0 0 C0.66 0 1.32 0 2 0 C3.6875 1.8125 3.6875 1.8125 5 4 C4.67 4.99 4.34 5.98 4 7 C3.67 6.01 3.34 5.02 3 4 C2.01 4.33 1.02 4.66 0 5 C0 3.35 0 1.7 0 0 Z " fill="#373737" transform="translate(182,194)"/>
<path d="M0 0 C1.98 0.99 1.98 0.99 4 2 C3.03114628 3.68496298 2.03013277 5.35178756 1 7 C0.67 7 0.34 7 0 7 C0 4.69 0 2.38 0 0 Z " fill="#1B1B1B" transform="translate(159,140)"/>
</svg>
