<?xml version="1.0" standalone="no"?>
<!DOCTYPE svg PUBLIC "-//W3C//DTD SVG 20010904//EN"
 "http://www.w3.org/TR/2001/REC-SVG-20010904/DTD/svg10.dtd">
<svg version="1.0" xmlns="http://www.w3.org/2000/svg"
 width="360.000000pt" height="360.000000pt" viewBox="0 0 360.000000 360.000000"
 preserveAspectRatio="xMidYMid meet">

<g transform="translate(0.000000,360.000000) scale(0.100000,-0.100000)"
fill="#000000" stroke="none">
<path d="M1748 3208 c-27 -9 -38 -28 -17 -28 6 0 42 -20 79 -45 87 -55 219
-181 275 -260 42 -59 79 -125 71 -125 -2 0 -48 55 -102 121 -202 251 -387 351
-532 289 -29 -12 -52 -26 -52 -30 0 -4 17 -12 38 -18 132 -40 348 -251 532
-520 34 -51 99 -132 144 -180 45 -48 97 -106 117 -130 l37 -43 29 25 c47 40
81 114 122 272 22 82 54 194 71 249 41 125 49 205 26 240 -23 35 -110 91 -180
115 -81 28 -93 25 -51 -11 36 -32 135 -172 135 -191 0 -6 -22 18 -49 53 -67
89 -136 150 -204 183 -57 26 -155 44 -211 38 -28 -4 -28 -4 21 -32 138 -79
270 -253 334 -439 32 -91 22 -81 -39 40 -100 200 -165 284 -273 355 -112 73
-240 102 -321 72z"/>
<path d="M1330 3083 c-30 -16 -55 -35 -55 -41 0 -7 46 -28 102 -47 171 -57
269 -113 467 -264 54 -42 110 -85 125 -96 24 -19 24 -17 -7 25 -80 110 -210
256 -276 311 -82 68 -193 126 -257 135 -36 5 -54 1 -99 -23z"/>
<path d="M1142 2987 c-78 -25 -147 -150 -123 -225 18 -59 23 -64 57 -51 39 15
168 15 235 -1 124 -28 292 -130 482 -292 54 -45 119 -97 145 -115 88 -60 101
-74 114 -116 14 -48 33 -67 100 -102 98 -51 171 -19 170 76 -1 53 -29 102
-114 199 -144 163 -335 329 -538 463 -215 143 -407 203 -528 164z"/>
<path d="M2616 2938 c-3 -24 -8 -90 -11 -148 -8 -125 -27 -229 -54 -283 -11
-22 -18 -45 -14 -50 3 -5 22 -6 43 -3 35 5 38 4 43 -20 3 -20 -2 -32 -24 -52
-16 -14 -29 -33 -29 -43 0 -18 21 -44 41 -51 9 -3 8 -10 -2 -26 -12 -20 -12
-24 1 -32 21 -14 53 -12 74 3 16 12 17 16 5 35 -12 19 -11 24 9 37 29 21 28
41 -7 81 -30 34 -32 62 -6 84 9 7 16 6 25 -5 11 -13 100 -23 100 -11 0 2 -16
37 -35 77 -23 49 -44 122 -64 217 -28 134 -62 232 -81 232 -5 0 -11 -19 -14
-42z"/>
<path d="M1102 2693 c-16 -3 -37 -26 -60 -65 -21 -33 -57 -90 -81 -125 -47
-71 -47 -68 -25 -210 6 -40 4 -44 -44 -95 -99 -105 -176 -264 -153 -315 10
-22 16 -23 108 -23 110 0 166 18 171 57 5 36 -33 66 -80 61 -34 -3 -37 -2 -22
9 39 28 117 3 128 -41 7 -29 -5 -66 -28 -85 -15 -13 -12 -17 31 -43 26 -16 63
-40 82 -53 46 -34 100 -33 140 1 l31 26 0 -35 c0 -51 -39 -92 -105 -113 -46
-15 -53 -20 -44 -35 12 -23 11 -80 -1 -99 -7 -11 -10 -6 -10 22 0 56 -15 87
-47 93 -15 4 -55 13 -88 22 -78 19 -119 15 -123 -13 -4 -30 19 -50 67 -58 53
-8 97 -62 85 -103 l-8 -28 -4 25 c-2 14 -7 27 -11 30 -3 3 -14 17 -24 33 -10
15 -21 27 -26 27 -4 0 -27 -25 -49 -55 -28 -37 -37 -55 -26 -55 13 0 12 -4 -2
-31 -9 -18 -13 -41 -9 -56 4 -18 -3 -37 -25 -71 -26 -39 -30 -53 -25 -86 10
-67 55 -130 55 -78 0 35 24 52 88 63 42 8 74 20 94 37 l31 27 -7 -29 c-6 -25
-5 -27 16 -21 13 4 43 20 67 37 l45 30 -17 -26 c-16 -23 -16 -26 -2 -26 27 0
72 28 100 62 l27 33 -6 -27 c-4 -16 -2 -28 2 -28 15 0 86 51 100 71 19 28 33
24 22 -6 l-10 -25 38 15 c20 9 50 30 65 48 27 30 28 31 22 7 l-7 -25 22 21
c12 12 26 37 30 55 7 31 9 32 15 12 10 -32 22 -29 44 15 12 22 20 30 21 20 0
-25 12 -22 34 8 12 17 17 37 14 59 -3 27 -1 32 9 23 18 -14 16 -69 -2 -95 -20
-29 -165 -130 -223 -154 -25 -11 -78 -29 -117 -40 -119 -33 -126 -72 -30 -164
l65 -62 0 -77 c0 -71 -2 -80 -25 -98 -48 -38 -192 -266 -153 -241 8 4 70 47
139 94 68 47 228 149 354 226 423 258 560 345 558 353 -2 5 -19 34 -38 65 -20
30 -44 74 -54 98 l-18 42 -89 19 c-76 17 -94 25 -126 56 -41 41 -56 81 -40
113 9 19 11 16 11 -23 1 -33 4 -41 11 -30 8 13 10 12 10 -3 0 -20 51 -77 69
-77 6 0 4 14 -5 35 -16 38 -19 101 -5 109 4 3 11 -15 15 -39 9 -72 29 -99 87
-125 60 -25 121 -24 160 4 l24 17 -35 -6 c-48 -9 -86 8 -110 47 -10 18 -18 34
-16 36 2 2 19 -6 37 -17 46 -28 107 -27 149 2 45 30 52 51 10 31 -25 -13 -36
-14 -60 -4 -16 7 -35 19 -42 28 -11 14 -10 15 7 7 44 -18 80 -17 108 5 36 28
37 53 1 40 -39 -15 -61 -12 -83 11 -17 18 -56 109 -47 109 2 0 16 -5 33 -10
33 -12 69 -2 96 25 26 25 22 46 -6 36 -55 -21 -112 15 -122 76 -10 58 -12 61
-45 68 -17 4 -52 21 -79 40 l-49 32 -7 -43 c-9 -62 -55 -148 -129 -238 -52
-63 -63 -83 -55 -97 15 -29 10 -59 -15 -84 -16 -16 -22 -31 -19 -48 4 -19 -1
-29 -21 -42 -25 -17 -28 -17 -47 1 -14 12 -19 27 -16 43 3 14 -3 38 -14 55
-10 17 -19 39 -19 48 0 13 -5 15 -28 9 -28 -8 -72 2 -72 16 0 5 19 7 43 5 54
-5 76 15 58 54 -6 14 -11 42 -10 62 l0 37 21 -55 c11 -30 19 -76 18 -102 -2
-71 46 -111 85 -71 12 12 15 26 11 51 -5 31 2 45 57 121 84 115 102 146 121
210 20 69 20 104 -1 148 -56 118 -235 80 -232 -49 0 -18 4 -42 9 -53 7 -15 9
-9 9 26 1 79 59 125 123 98 66 -27 78 -128 27 -227 -32 -61 -88 -137 -96 -129
-2 3 10 25 26 50 85 125 102 213 52 269 -26 29 -32 31 -56 23 -34 -12 -57 -45
-37 -52 7 -3 25 -15 39 -27 21 -18 25 -30 25 -74 -1 -70 -29 -115 -93 -148
-59 -30 -66 -15 -7 18 23 13 49 38 60 58 33 63 17 140 -29 140 -13 0 -14 -8
-9 -40 8 -49 -12 -55 -42 -12 -27 39 -33 70 -21 118 13 51 43 82 98 97 l40 12
-165 130 c-91 72 -171 131 -178 133 -27 6 -34 -88 -12 -159 7 -24 30 -71 50
-103 46 -77 48 -126 6 -231 -38 -96 -39 -136 -4 -164 35 -27 49 -27 30 1 -9
12 -16 34 -16 48 1 25 1 25 15 -5 l13 -30 1 32 c1 22 11 44 31 65 l31 33 -22
-38 c-19 -33 -20 -43 -11 -75 10 -30 9 -39 -5 -54 -24 -26 -69 -23 -100 8 -21
21 -25 32 -21 68 3 23 18 71 34 107 40 89 37 133 -17 245 -41 82 -44 94 -43
164 1 41 3 83 5 94 5 23 -85 76 -181 107 -64 20 -202 33 -248 22z m-52 -203
c-23 -44 -80 -50 -80 -9 0 18 3 19 15 9 15 -12 55 -5 55 11 0 5 5 9 10 9 7 0
7 -6 0 -20z m143 -71 c55 -29 118 -74 107 -77 -7 -3 -39 10 -72 27 -76 39
-101 39 -158 1 -77 -51 -133 -35 -107 30 l10 25 7 -25 c8 -29 16 -28 84 6 54
26 95 30 129 13z m-13 -144 c63 -41 52 -46 -20 -10 -27 14 -66 25 -87 25 -28
0 -34 3 -23 10 29 19 75 10 130 -25z m-44 -20 c88 -35 141 -41 189 -21 l40 17
-22 -23 c-20 -19 -33 -22 -89 -21 -55 1 -73 -3 -102 -23 -19 -13 -48 -24 -63
-24 -26 0 -29 3 -35 50 -6 44 -9 50 -30 50 -13 0 -24 5 -24 10 0 18 73 10 136
-15z m68 -129 c-13 -35 -121 -60 -131 -30 -2 6 10 8 32 6 24 -3 45 2 67 17 39
25 39 25 32 7z"/>
<path d="M1060 2241 c0 -36 12 -51 40 -51 62 0 77 21 33 43 -55 28 -73 30 -73
8z"/>
<path d="M864 1825 c-34 -23 -49 -69 -34 -105 11 -27 17 -30 60 -30 26 0 67
-7 91 -16 49 -17 145 -23 201 -11 35 7 98 57 98 77 0 5 -17 2 -37 -6 -57 -24
-109 -11 -204 52 -87 58 -134 68 -175 39z"/>
<path d="M2355 1341 c-27 -5 -45 -33 -20 -30 20 3 55 22 55 31 0 4 -1 7 -2 7
-2 -1 -16 -4 -33 -8z"/>
<path d="M2408 1323 c-21 -13 -26 -23 -22 -40 5 -18 2 -23 -14 -23 -11 0 -22
5 -24 12 -3 7 -64 -25 -159 -84 -85 -52 -258 -160 -386 -239 -127 -79 -253
-157 -279 -172 -46 -28 -46 -28 -25 -43 26 -19 27 -40 2 -54 -23 -12 -56 13
-47 36 6 17 -6 18 -21 3 -9 -9 -9 -16 0 -29 8 -14 8 -22 -2 -34 -17 -20 -30
-20 -52 0 -16 14 -24 10 -108 -50 -50 -36 -92 -66 -93 -66 -8 0 -5 90 2 90 6
0 1 9 -10 20 -17 17 -18 24 -10 41 14 25 41 21 55 -8 10 -20 13 -18 38 30 15
29 56 87 92 129 69 82 77 102 44 111 -12 3 -18 10 -14 17 4 6 13 9 21 6 10 -4
14 2 14 19 0 32 -6 31 -61 -3 -103 -66 -206 -183 -349 -396 -41 -61 -49 -80
-39 -87 27 -17 196 -79 274 -101 67 -18 106 -22 240 -22 147 0 169 3 277 31
181 49 323 110 728 315 206 104 377 192 380 195 9 9 -84 82 -137 109 -48 24
-60 26 -120 19 -113 -11 -244 -62 -548 -213 -416 -206 -601 -283 -760 -317
-117 -25 -107 -16 40 34 197 66 412 159 765 331 295 144 366 171 478 186 28 4
52 12 52 18 0 37 -159 247 -186 246 -5 0 -21 -8 -36 -17z m-50 -91 c3 -16 -2
-22 -17 -22 -24 0 -35 15 -27 36 9 23 40 13 44 -14z m-43 -47 c0 -13 -8 -21
-22 -23 -17 -3 -23 2 -23 16 0 10 3 22 7 26 13 13 38 1 38 -19z m-61 -38 c16
-25 -16 -56 -38 -37 -19 15 -20 32 -4 48 15 15 28 11 42 -11z m-69 -57 c0 -18
-6 -26 -21 -28 -26 -4 -40 24 -23 45 18 21 44 11 44 -17z m-70 -50 c0 -18 -6
-26 -23 -28 -27 -4 -40 22 -22 44 19 22 45 13 45 -16z m-60 -50 c0 -18 -6 -26
-23 -28 -13 -2 -25 3 -28 12 -10 26 4 48 28 44 17 -2 23 -10 23 -28z m-65 -25
c18 -21 5 -45 -25 -45 -40 0 -34 54 6 59 4 1 12 -6 19 -14z m-614 -26 c10 -17
-13 -36 -27 -22 -12 12 -4 33 11 33 5 0 12 -5 16 -11z m549 -39 c0 -18 -6 -26
-23 -28 -24 -4 -38 18 -28 44 3 9 15 14 28 12 17 -2 23 -10 23 -28z m-587 -12
c-3 -7 -11 -13 -18 -13 -7 0 -15 6 -17 13 -3 7 4 12 17 12 13 0 20 -5 18 -12z
m522 -32 c0 -20 -27 -39 -45 -32 -25 9 -30 37 -10 52 20 15 55 2 55 -20z
m-565 -16 c0 -22 -29 -18 -33 3 -3 14 1 18 15 15 10 -2 18 -10 18 -18z m479
-23 c8 -12 7 -21 -6 -33 -22 -22 -48 -11 -48 20 0 37 34 45 54 13z m-506 -20
c4 -20 -25 -34 -40 -19 -15 15 -1 44 19 40 10 -2 19 -11 21 -21z m426 -9 c8
-14 7 -21 -6 -34 -30 -30 -75 9 -48 42 16 18 39 15 54 -8z m-465 -31 c15 -19
-9 -50 -32 -41 -17 6 -23 35 -10 47 10 11 30 8 42 -6z m379 1 c16 -16 -3 -48
-29 -48 -22 0 -34 22 -25 45 6 18 37 20 54 3z"/>
</g>
</svg>
