<?xml version="1.0" encoding="UTF-8"?>
<svg version="1.1" xmlns="http://www.w3.org/2000/svg" width="1080" height="1920">
<path d="M0 0 C27.72 0 55.44 0 84 0 C84 1.32 84 2.64 84 4 C85.32 4 86.64 4 88 4 C88 5.32 88 6.64 88 8 C88.66 8 89.32 8 90 8 C90 8.99 90 9.98 90 11 C90.99 11.33 91.98 11.66 93 12 C93.2165625 13.7015625 93.2165625 13.7015625 93.4375 15.4375 C93.61171478 18.80777201 93.61171478 18.80777201 95 20 C95.24435082 23.96847945 95.22863451 27.94088892 95.24023438 31.91625977 C95.24980951 33.89807249 95.28093668 35.87974363 95.3125 37.86132812 C95.37506764 53.29207164 95.37506764 53.29207164 92 59 C89.89160156 59.75756836 89.89160156 59.75756836 88 60 C88 61.32 88 62.64 88 64 C86.68 64 85.36 64 84 64 C84 65.32 84 66.64 84 68 C83.030625 68.12375 82.06125 68.2475 81.0625 68.375 C79.5465625 68.684375 79.5465625 68.684375 78 69 C77.67 69.66 77.34 70.32 77 71 C74.36 71 71.72 71 69 71 C69 72.32 69 73.64 69 75 C68.34 75 67.68 75 67 75 C67.1404983 77.7920301 67.28715383 80.58349796 67.4375 83.375 C67.47681641 84.1690625 67.51613281 84.963125 67.55664062 85.78125 C67.68893404 90.02601221 67.68893404 90.02601221 69 94 C69.09365406 95.87521677 69.12191021 97.7538249 69.12025452 99.63137817 C69.12231651 101.42771698 69.12231651 101.42771698 69.12442017 103.26034546 C69.12088081 104.59429956 69.117246 105.92825342 69.11352539 107.26220703 C69.11324344 108.661499 69.11340142 110.06079112 69.1139679 111.46008301 C69.11425554 115.26564122 69.10836406 119.07116809 69.10139394 122.876719 C69.095155 126.85123188 69.09455617 130.82574543 69.09336853 134.80026245 C69.09025681 142.32963744 69.08204556 149.85899797 69.07201904 157.38836658 C69.06085297 165.95898551 69.0553462 174.52960511 69.05032361 183.1002295 C69.03986283 200.73349455 69.02226646 218.36674611 69 236 C69.66 236 70.32 236 71 236 C71 237.32 71 238.64 71 240 C75.29 240 79.58 240 84 240 C84 241.32 84 242.64 84 244 C85.32 244 86.64 244 88 244 C88 245.32 88 246.64 88 248 C88.66 248 89.32 248 90 248 C91.4606285 250.64738916 92 251.89448334 92 255 C92.99 255 93.98 255 95 255 C95 256.32 95 257.64 95 259 C103.91 259 112.82 259 122 259 C122.66 257.68 123.32 256.36 124 255 C131.26 255 138.52 255 146 255 C146 254.01 146 253.02 146 252 C149.04300316 250.47849842 151.654085 250.76100607 155 251 C155.66 251.99 156.32 252.98 157 254 C159.55183404 255.20450304 159.55183404 255.20450304 162 256 C162 256.99 162 257.98 162 259 C162.66 259 163.32 259 164 259 C164 260.32 164 261.64 164 263 C165.32 263 166.64 263 168 263 C168 263.99 168 264.98 168 266 C168.639375 266.103125 169.27875 266.20625 169.9375 266.3125 C170.9584375 266.6528125 170.9584375 266.6528125 172 267 C172.33 267.99 172.66 268.98 173 270 C173.66 270 174.32 270 175 270 C175 271.32 175 272.64 175 274 C175.66 274 176.32 274 177 274 C177 278.95 177 283.9 177 289 C176.34 289 175.68 289 175 289 C175 290.32 175 291.64 175 293 C174.34 293 173.68 293 173 293 C173 293.99 173 294.98 173 296 C172.34 296 171.68 296 171 296 C171 297.32 171 298.64 171 300 C170.01 300 169.02 300 168 300 C168 301.32 168 302.64 168 304 C166.68 304 165.36 304 164 304 C164 305.32 164 306.64 164 308 C163.34 308 162.68 308 162 308 C162 308.99 162 309.98 162 311 C160.37536158 311.05395478 158.75021459 311.09277195 157.125 311.125 C156.22007812 311.14820313 155.31515625 311.17140625 154.3828125 311.1953125 C152 311 152 311 150 309 C147.47425719 308.71904008 145.03277053 308.53455009 142.5 308.4375 C135.23693648 308.11846824 135.23693648 308.11846824 133 307 C133 306.01 133 305.02 133 304 C127.06 304 121.12 304 115 304 C114.67 302.68 114.34 301.36 114 300 C108.06 300 102.12 300 96 300 C95.67 298.68 95.34 297.36 95 296 C90.05 296 85.1 296 80 296 C80 297.32 80 298.64 80 300 C79.34 300 78.68 300 78 300 C78.14076315 301.9587043 78.2877676 303.91696093 78.4375 305.875 C78.51871094 306.96554687 78.59992188 308.05609375 78.68359375 309.1796875 C78.83001703 311.94728971 78.83001703 311.94728971 80 314 C80.0955931 315.66444461 80.12984645 317.33281963 80.125 319 C80.12757813 319.886875 80.13015625 320.77375 80.1328125 321.6875 C80 324 80 324 79 326 C78.89804808 327.52390751 78.85786998 329.05215186 78.84851074 330.57943726 C78.84016708 331.54403366 78.83182343 332.50863007 78.82322693 333.50245667 C78.8169503 335.09524696 78.8169503 335.09524696 78.81054688 336.72021484 C78.80225357 337.83574234 78.79396027 338.95126984 78.78541565 340.1006012 C78.76798515 342.52929625 78.75282661 344.9580084 78.73963928 347.38673019 C78.71866008 351.22739871 78.69163256 355.06798155 78.66296387 358.90859985 C78.6031832 367.06403406 78.55103667 375.21950706 78.5 383.375 C78.4408832 392.81585331 78.37852348 402.25666012 78.30812073 411.69743729 C78.2815097 415.48645946 78.26071521 419.27548575 78.2401123 423.06454468 C78.22350997 425.38336387 78.20663819 427.70218115 78.18945312 430.02099609 C78.1831765 431.6077137 78.1831765 431.6077137 78.17677307 433.22648621 C78.16842941 434.19672226 78.16008575 435.16695831 78.15148926 436.16659546 C78.14633553 437.0083602 78.14118179 437.85012493 78.13587189 438.71739769 C78.00321596 440.94597299 77.53993022 442.8416416 77 445 C76.90426909 446.60234303 76.85838415 448.20804735 76.84851074 449.81321716 C76.84016708 450.77911774 76.83182343 451.74501831 76.82322693 452.7401886 C76.8169503 454.3198365 76.8169503 454.3198365 76.81054688 455.93139648 C76.80225357 457.04560974 76.79396027 458.159823 76.78541565 459.30780029 C76.76801747 461.72772744 76.75285002 464.14767141 76.73963928 466.56762505 C76.71861252 470.39612598 76.6915892 474.2245426 76.66296387 478.05299377 C76.60326571 486.18113105 76.55106522 494.30930505 76.5 502.4375 C76.44083623 511.85185231 76.37847679 521.26615976 76.30812073 530.68043709 C76.28154319 534.45446054 76.26072997 538.22848818 76.2401123 542.00254822 C76.22350831 544.31477052 76.20663639 546.62699092 76.18945312 548.93920898 C76.1831765 550.51582054 76.1831765 550.51582054 76.17677307 552.12428284 C76.16842941 553.09300323 76.16008575 554.06172363 76.15148926 555.05979919 C76.14633553 555.8980445 76.14118179 556.73628981 76.13587189 557.59993649 C76 560 76 560 75.5 562.45525074 C74.95193722 565.24461542 74.86349449 567.81406064 74.84851074 570.65618896 C74.84016708 571.78493942 74.83182343 572.91368988 74.82322693 574.0766449 C74.8169503 575.92154259 74.8169503 575.92154259 74.81054688 577.80371094 C74.80225357 579.10717972 74.79396027 580.4106485 74.78541565 581.75361633 C74.76737491 584.58981313 74.7523506 587.42600427 74.73963928 590.26222992 C74.71926833 594.78319325 74.69161859 599.30409485 74.66296387 603.82501221 C74.6079785 612.65211216 74.55997233 621.47924303 74.51302338 630.30638885 C74.45369373 641.43856915 74.39220062 652.57073017 74.32245111 663.70285058 C74.29922819 667.44239246 74.27763891 671.18192672 74.26036072 674.92150116 C74.18676895 690.77491435 73.99337544 706.61813016 73.54492188 722.46582031 C73.52575242 723.19071073 73.50658297 723.91560115 73.48683262 724.66245794 C73.43191266 726.69579326 73.36940732 728.72891948 73.30651855 730.76202393 C73.27165092 731.92114918 73.23678329 733.08027443 73.20085907 734.27452469 C73 737 73 737 72 739 C71.89564855 741.19976547 71.85770485 743.4027605 71.84851074 745.60498047 C71.84427833 746.29131498 71.84004592 746.9776495 71.83568525 747.68478203 C71.8226193 749.99558597 71.81662539 752.30635538 71.81054688 754.6171875 C71.80260767 756.269391 71.79421998 757.92159239 71.78541565 759.5737915 C71.76733521 763.13693637 71.75232804 766.70007653 71.73963928 770.26324463 C71.71945578 775.89281184 71.69179873 781.52232683 71.66296387 787.15185547 C71.60281982 799.10121257 71.55099559 811.05060089 71.5 823 C71.44495372 835.89856467 71.38851826 848.79711354 71.32245111 861.69562721 C71.29404865 867.29652551 71.27047185 872.89741754 71.25052643 878.49835205 C71.23716796 881.97722871 71.21975404 885.45607635 71.20121574 888.93492889 C71.19344012 890.5530906 71.18737915 892.17126155 71.18312263 893.78943634 C71.1771026 895.9913472 71.16506754 898.19314427 71.15148926 900.39501953 C71.14633553 901.62946808 71.14118179 902.86391663 71.13587189 904.13577271 C71 907 71 907 70 909 C69.89616807 911.0097941 69.85773955 913.02306918 69.84851074 915.03552246 C69.84016708 916.32274704 69.83182343 917.60997162 69.82322693 918.936203 C69.81891721 920.37087988 69.81469343 921.80555702 69.81054688 923.24023438 C69.80260725 924.74465671 69.79421952 926.24907674 69.78541565 927.75349426 C69.76733806 930.99742465 69.75232987 934.24134989 69.73963928 937.48530579 C69.71945193 942.61080185 69.69179539 947.73624061 69.66296387 952.86169434 C69.60282566 963.74110277 69.55099842 974.62054546 69.5 985.5 C69.4449502 997.24373161 69.38851123 1008.98744589 69.32245111 1020.73112154 C69.29405312 1025.8302455 69.27047472 1030.9293626 69.25052643 1036.02852631 C69.2371656 1039.19602049 69.21975181 1042.36348283 69.20121574 1045.53095055 C69.19344179 1047.00398137 69.18738008 1048.47702234 69.18312263 1049.95006752 C69.17710023 1051.95488954 69.1644841 1053.95968858 69.15148926 1055.96447754 C69.14633553 1057.08831093 69.14118179 1058.21214432 69.13587189 1059.37003326 C69 1062 69 1062 68 1064 C67.89771356 1065.59400125 67.8578462 1067.19219153 67.84851074 1068.78944397 C67.84016708 1069.80044662 67.83182343 1070.81144928 67.82322693 1071.85308838 C67.8169503 1073.52307892 67.8169503 1073.52307892 67.81054688 1075.22680664 C67.79810692 1076.98047798 67.79810692 1076.98047798 67.78541565 1078.76957703 C67.76342644 1081.98015865 67.74573563 1085.19073209 67.72960854 1088.4013474 C67.71147426 1091.75615443 67.68701698 1095.11091407 67.66296387 1098.46568298 C67.59772578 1107.72448626 67.54229668 1116.98334349 67.48697662 1126.24221039 C67.43617477 1134.72927011 67.38332991 1143.21630335 67.32245111 1151.70329756 C67.29871093 1155.04615178 67.27713572 1158.38899273 67.26036072 1161.73188972 C67.24107862 1165.45549846 67.21590649 1169.17902425 67.18945312 1172.90258789 C67.1831765 1174.57561478 67.1831765 1174.57561478 67.17677307 1176.28244019 C67.16842941 1177.29062302 67.16008575 1178.29880585 67.15148926 1179.33753967 C67.14633553 1180.21894151 67.14118179 1181.10034334 67.13587189 1182.00845432 C67 1184 67 1184 66 1185 C65.81574561 1186.57932331 65.67745244 1188.16412556 65.5625 1189.75 C65.22877666 1193.50707894 64.70749151 1196.58501698 63 1200 C62.34 1200 61.68 1200 61 1200 C61 1201.32 61 1202.64 61 1204 C60.34 1204 59.68 1204 59 1204 C59 1205.32 59 1206.64 59 1208 C58.34 1208 57.68 1208 57 1208 C56.86722656 1208.62648438 56.73445312 1209.25296875 56.59765625 1209.8984375 C56.42105469 1210.71570312 56.24445313 1211.53296875 56.0625 1212.375 C55.88847656 1213.18710938 55.71445312 1213.99921875 55.53515625 1214.8359375 C55 1217 55 1217 54 1219 C53.34 1219 52.68 1219 52 1219 C52 1220.32 52 1221.64 52 1223 C51.34 1223 50.68 1223 50 1223 C50 1223.99 50 1224.98 50 1226 C49.34 1226 48.68 1226 48 1226 C47.896875 1226.804375 47.79375 1227.60875 47.6875 1228.4375 C46.84899627 1232.78247386 45.47178341 1236.83457527 44 1241 C43.34 1241 42.68 1241 42 1241 C42 1242.32 42 1243.64 42 1245 C41.34 1245 40.68 1245 40 1245 C40 1246.32 40 1247.64 40 1249 C39.34 1249 38.68 1249 38 1249 C37.814375 1250.60875 37.814375 1250.60875 37.625 1252.25 C37.10356064 1255.37863615 36.59911746 1257.33480424 35 1260 C34.34 1260 33.68 1260 33 1260 C33 1261.32 33 1262.64 33 1264 C32.34 1264 31.68 1264 31 1264 C31 1266.31 31 1268.62 31 1271 C30.34 1271 29.68 1271 29 1271 C29 1272.32 29 1273.64 29 1275 C28.34 1275 27.68 1275 27 1275 C26.67 1276.32 26.34 1277.64 26 1279 C24.35 1278.67 22.7 1278.34 21 1278 C21 1277.01 21 1276.02 21 1275 C20.34 1275 19.68 1275 19 1275 C19 1272.69 19 1270.38 19 1268 C18.34 1268 17.68 1268 17 1268 C17 1266.68 17 1265.36 17 1264 C16.34 1264 15.68 1264 15 1264 C15 1261.36 15 1258.72 15 1256 C14.01 1256 13.02 1256 12 1256 C9.67409146 1252.36576791 9.83734167 1249.22911669 10 1245 C9.34 1245 8.68 1245 8 1245 C8 1243.68 8 1242.36 8 1241 C7.34 1241 6.68 1241 6 1241 C4.80712589 1237.12315913 4 1234.08378077 4 1230 C3.34 1230 2.68 1230 2 1230 C2 1227.69 2 1225.38 2 1223 C1.34 1223 0.68 1223 0 1223 C0 1221.68 0 1220.36 0 1219 C-0.66 1219 -1.32 1219 -2 1219 C-2 1216.36 -2 1213.72 -2 1211 C-2.66 1211 -3.32 1211 -4 1211 C-4 1210.01 -4 1209.02 -4 1208 C-4.99 1207.67 -5.98 1207.34 -7 1207 C-8.39044898 1203.12137916 -9 1200.13537997 -9 1196 C-9.66 1196 -10.32 1196 -11 1196 C-11 1193.69 -11 1191.38 -11 1189 C-11.66 1189 -12.32 1189 -13 1189 C-13.02314035 1175.36151584 -13.04092376 1161.72303633 -13.05181217 1148.08453655 C-13.05703728 1141.75207006 -13.06412822 1135.41961698 -13.07543945 1129.0871582 C-13.0862815 1122.97935161 -13.09227965 1116.87155792 -13.09487724 1110.76374245 C-13.0967291 1108.43008025 -13.10034517 1106.09641879 -13.10573006 1103.76276207 C-13.11295791 1100.50157502 -13.11399019 1097.24044178 -13.11352539 1093.97924805 C-13.11712067 1093.00820633 -13.12071594 1092.03716461 -13.12442017 1091.03669739 C-13.1230455 1090.14908722 -13.12167084 1089.26147705 -13.12025452 1088.3469696 C-13.12117631 1087.57542888 -13.1220981 1086.80388815 -13.12304783 1086.0089674 C-13 1084 -13 1084 -12 1081 C-11.89827724 1078.80696814 -11.85789084 1076.61094286 -11.84851074 1074.41557312 C-11.84427833 1073.7434571 -11.84004592 1073.07134108 -11.83568525 1072.37885791 C-11.82264739 1070.12195448 -11.81663174 1067.86508639 -11.81054688 1065.6081543 C-11.80260522 1063.99184961 -11.79421732 1062.37554706 -11.78541565 1060.75924683 C-11.76734871 1057.27579557 -11.75233643 1053.79234906 -11.73963928 1050.30887413 C-11.7194259 1044.79994566 -11.69177106 1039.2910701 -11.66296387 1033.78218079 C-11.60284783 1022.08397867 -11.55103978 1010.38574469 -11.5 998.6875 C-11.44491094 986.06929676 -11.38836666 973.45110961 -11.32245111 960.83295757 C-11.29413058 955.35777819 -11.27052361 949.88260487 -11.25052643 944.40738904 C-11.23711733 940.99824306 -11.2197057 937.58912597 -11.20121574 934.18000412 C-11.19347491 932.60061056 -11.1873987 931.02120781 -11.18312263 929.44180107 C-11.17705049 927.28294439 -11.16498966 925.12419899 -11.15148926 922.96537781 C-11.14633553 921.75803828 -11.14118179 920.55069876 -11.13587189 919.30677319 C-11.00477204 916.11613925 -10.53269518 913.14382086 -10 910 C-9.90625892 907.94178673 -9.8585788 905.88113832 -9.84851074 903.82081604 C-9.84016708 902.60263184 -9.83182343 901.38444763 -9.82322693 900.12934875 C-9.8189183 898.79269435 -9.81469444 897.45603968 -9.81054688 896.11938477 C-9.80259698 894.70130166 -9.79420843 893.28322095 -9.78541565 891.86514282 C-9.76740667 888.81882492 -9.75237398 885.77251215 -9.73963928 882.72616768 C-9.71935439 877.90562176 -9.69171052 873.08513504 -9.66296387 868.26463318 C-9.60296623 858.0306166 -9.55107846 847.79656439 -9.5 837.5625 C-9.44485528 826.51643339 -9.38829739 815.47038477 -9.32245111 804.42437595 C-9.29418376 799.63606746 -9.27055867 794.84776565 -9.25052643 790.05941594 C-9.2370935 787.0763249 -9.21968391 784.09326649 -9.20121574 781.11020279 C-9.19349223 779.73118482 -9.18740857 778.35215649 -9.18312263 776.97312355 C-9.17702467 775.08411865 -9.16439743 773.19513825 -9.15148926 771.3061676 C-9.14633553 770.2511332 -9.14118179 769.1960988 -9.13587189 768.10909367 C-9 765 -9 765 -8.5 761.5227356 C-8.0105539 758.07435722 -7.86444387 754.81043362 -7.84851074 751.33006287 C-7.84016708 750.02806442 -7.83182343 748.72606598 -7.82322693 747.38461304 C-7.8189183 745.95880151 -7.81469445 744.53298973 -7.81054688 743.10717773 C-7.80259521 741.59193191 -7.79420653 740.07668833 -7.78541565 738.56144714 C-7.76741187 735.30671788 -7.7523768 732.05199339 -7.73963928 728.7972393 C-7.71932254 723.63864379 -7.69167968 718.48010311 -7.66296387 713.32154846 C-7.60297734 702.36022488 -7.55114868 691.39886782 -7.5 680.4375 C-7.44479349 668.62553945 -7.38803679 656.81359574 -7.32245111 645.00168759 C-7.2943191 639.88666262 -7.27064564 634.77164328 -7.25052643 629.65658081 C-7.23700519 626.45572899 -7.21960128 623.25490627 -7.20121574 620.05407906 C-7.1935516 618.58447136 -7.18744307 617.11485448 -7.18312263 615.64523315 C-7.1055231 590.21104619 -7.1055231 590.21104619 -5 586 C-4.89612491 583.97529539 -4.85773665 581.947131 -4.84851074 579.91978455 C-4.84016708 578.62270065 -4.83182343 577.32561676 -4.82322693 575.98922729 C-4.81891723 574.54351831 -4.81469345 573.09780907 -4.81054688 571.65209961 C-4.80260736 570.13620268 -4.79421964 568.62030805 -4.78541565 567.10441589 C-4.7673385 563.83592834 -4.75233024 560.56744589 -4.73963928 557.29893303 C-4.71945548 552.13590628 -4.69179909 546.97293646 -4.66296387 541.80995178 C-4.59770514 529.91935994 -4.54229399 518.02872592 -4.48697662 506.13808441 C-4.43618156 495.23997333 -4.3833389 484.3418829 -4.32245111 473.44382292 C-4.29403215 468.30595153 -4.27046164 463.16808705 -4.25052643 458.03017604 C-4.23717923 454.84087902 -4.21976499 451.65161382 -4.20121574 448.46234322 C-4.19343246 446.97760443 -4.1873749 445.49285551 -4.18312263 444.00810242 C-4.17711409 441.98979361 -4.16450036 439.97150762 -4.15148926 437.95323181 C-4.14633553 436.82110229 -4.14118179 435.68897276 -4.13587189 434.52253628 C-4 432 -4 432 -3 431 C-2.89625743 429.4240145 -2.86203697 427.84340454 -2.85523987 426.26402283 C-2.84834137 425.23926849 -2.84144287 424.21451416 -2.83433533 423.15870667 C-2.83172195 422.02472946 -2.82910858 420.89075226 -2.82641602 419.72241211 C-2.8163855 417.94193481 -2.8163855 417.94193481 -2.80615234 416.12548828 C-2.78836834 412.85859001 -2.77484487 409.59170261 -2.7625401 406.32478023 C-2.74811995 402.90517714 -2.72659469 399.4856214 -2.70530701 396.0660553 C-2.63406862 384.41070471 -2.57446395 372.75530838 -2.52319336 361.09985352 C-2.49482289 354.6675474 -2.45939892 348.23531734 -2.41653961 341.80309111 C-2.39422032 338.40018246 -2.37567883 334.99734394 -2.36609077 331.5943737 C-2.3539102 327.79059079 -2.32974582 323.9870539 -2.30297852 320.18334961 C-2.30238937 319.06354202 -2.30180023 317.94373444 -2.30119324 316.78999329 C-2.24589165 310.84636208 -1.72549937 305.69595944 0 300 C-0.66 300 -1.32 300 -2 300 C-2 298.68 -2 297.36 -2 296 C-2.66 296 -3.32 296 -4 296 C-4 295.01 -4 294.02 -4 293 C-5.65 293 -7.3 293 -9 293 C-9 293.99 -9 294.98 -9 296 C-14.61 296 -20.22 296 -26 296 C-26.33 297.32 -26.66 298.64 -27 300 C-34.26 300 -41.52 300 -49 300 C-49 300.99 -49 301.98 -49 303 C-51.34852528 304.17426264 -52.73774065 304.11508173 -55.3515625 304.09765625 C-56.20234375 304.09443359 -57.053125 304.09121094 -57.9296875 304.08789062 C-58.81914062 304.07951172 -59.70859375 304.07113281 -60.625 304.0625 C-61.5221875 304.05798828 -62.419375 304.05347656 -63.34375 304.04882812 C-65.56256648 304.03702591 -67.78125018 304.02056155 -70 304 C-70.33 304.99 -70.66 305.98 -71 307 C-73.36613456 308.18306728 -74.86780736 308.13354608 -77.5 308.125 C-78.69109375 308.12886719 -78.69109375 308.12886719 -79.90625 308.1328125 C-82 308 -82 308 -84 307 C-84 306.01 -84 305.02 -84 304 C-84.99 304 -85.98 304 -87 304 C-87 302.68 -87 301.36 -87 300 C-87.66 300 -88.32 300 -89 300 C-89 298.68 -89 297.36 -89 296 C-89.66 296 -90.32 296 -91 296 C-91 295.01 -91 294.02 -91 293 C-91.66 293 -92.32 293 -93 293 C-93 291.68 -93 290.36 -93 289 C-93.66 289 -94.32 289 -95 289 C-95 287.68 -95 286.36 -95 285 C-95.66 285 -96.32 285 -97 285 C-97 283.68 -97 282.36 -97 281 C-97.66 281 -98.32 281 -99 281 C-99 278.69 -99 276.38 -99 274 C-98.34 274 -97.68 274 -97 274 C-97 272.68 -97 271.36 -97 270 C-96.34 270 -95.68 270 -95 270 C-95 268.68 -95 267.36 -95 266 C-93.68 266 -92.36 266 -91 266 C-91 265.01 -91 264.02 -91 263 C-89.68 263 -88.36 263 -87 263 C-87 261.68 -87 260.36 -87 259 C-86.34 259 -85.68 259 -85 259 C-84.505 257.02 -84.505 257.02 -84 255 C-82.68 255 -81.36 255 -80 255 C-80 253.68 -80 252.36 -80 251 C-75.6217488 250.97530919 -71.24353433 250.95714443 -66.86523438 250.94506836 C-65.37531834 250.94003486 -63.88540726 250.93320758 -62.39550781 250.92456055 C-60.25584696 250.91245195 -58.11625132 250.90676193 -55.9765625 250.90234375 C-54.68830566 250.89710693 -53.40004883 250.89187012 -52.07275391 250.88647461 C-49 251 -49 251 -47 252 C-47 252.99 -47 253.98 -47 255 C-40.4 255 -33.8 255 -27 255 C-26.67 256.32 -26.34 257.64 -26 259 C-21.05 259 -16.1 259 -11 259 C-11 257.68 -11 256.36 -11 255 C-10.34 255 -9.68 255 -9 255 C-8.855625 254.401875 -8.71125 253.80375 -8.5625 253.1875 C-8.1127561 251.43849596 -7.57107659 249.71322977 -7 248 C-6.01 248 -5.02 248 -4 248 C-4 246.68 -4 245.36 -4 244 C-3.34 244 -2.68 244 -2 244 C-1.67 242.68 -1.34 241.36 -1 240 C4.28 240 9.56 240 15 240 C15.79382122 236.8247151 16.12542848 234.71281815 16.12698364 231.539505 C16.12980347 230.65196533 16.13262329 229.76442566 16.13552856 228.84999084 C16.13350433 227.88411545 16.1314801 226.91824005 16.12939453 225.9230957 C16.13114685 224.89999298 16.13289917 223.87689026 16.13470459 222.82278442 C16.13910678 219.44043279 16.13619148 216.05813341 16.1328125 212.67578125 C16.13348585 210.32976776 16.13445614 207.98375434 16.13571167 205.63774109 C16.1371863 200.72259863 16.13504102 195.80747434 16.13037109 190.89233398 C16.12466453 184.57680223 16.12796016 178.26131288 16.13394356 171.94578266 C16.13754747 167.10326311 16.13641154 162.26075372 16.13381577 157.41823387 C16.13314651 155.08850283 16.13397486 152.75877089 16.13629532 150.42904091 C16.13882007 147.18224245 16.1349842 143.93551392 16.12939453 140.6887207 C16.13243088 139.23079857 16.13243088 139.23079857 16.13552856 137.74342346 C16.13129883 136.42480316 16.13129883 136.42480316 16.12698364 135.07954407 C16.12660662 134.31135503 16.12622959 133.54316599 16.12584114 132.75169849 C16.19008246 130.97187529 16.19008246 130.97187529 15 130 C14.90731001 128.64905018 14.88252674 127.29332909 14.88647461 125.93920898 C14.88658791 124.64798378 14.88658791 124.64798378 14.88670349 123.33067322 C14.89186478 122.39526199 14.89702606 121.45985077 14.90234375 120.49609375 C14.9037587 119.54307877 14.90517365 118.59006378 14.90663147 117.60816956 C14.91224848 114.55124835 14.92480384 111.49439923 14.9375 108.4375 C14.94251281 106.37044376 14.94707609 104.30338638 14.95117188 102.23632812 C14.96222344 97.15752412 14.97949945 92.0787743 15 87 C15.66 87 16.32 87 17 87 C17 84.36 17 81.72 17 79 C16.34 79 15.68 79 15 79 C15 76.36 15 73.72 15 71 C13.35 70.67 11.7 70.34 10 70 C10 69.34 10 68.68 10 68 C6.04 68 2.08 68 -2 68 C-2.66 66.68 -3.32 65.36 -4 64 C-6.55519921 63.18828772 -6.55519921 63.18828772 -9 63 C-9 62.01 -9 61.02 -9 60 C-9.66 60 -10.32 60 -11 60 C-11 58.68 -11 57.36 -11 56 C-11.66 56 -12.32 56 -13 56 C-13.2165625 54.2984375 -13.2165625 54.2984375 -13.4375 52.5625 C-13.61171478 49.19222799 -13.61171478 49.19222799 -15 48 C-15.0991918 46.38916255 -15.1307982 44.77404356 -15.1328125 43.16015625 C-15.13410156 42.17982422 -15.13539063 41.19949219 -15.13671875 40.18945312 C-15.13285156 39.15755859 -15.12898437 38.12566406 -15.125 37.0625 C-15.12886719 36.03447266 -15.13273438 35.00644531 -15.13671875 33.94726562 C-15.13542969 32.96564453 -15.13414062 31.98402344 -15.1328125 30.97265625 C-15.13168457 30.06781494 -15.13055664 29.16297363 -15.12939453 28.23071289 C-15 26 -15 26 -14 24 C-13.72304178 20.98423267 -13.55347062 17.96861888 -13.37890625 14.9453125 C-13.01903971 12.14799941 -12.43081115 10.39820168 -11 8 C-10.34 8 -9.68 8 -9 8 C-9 6.68 -9 5.36 -9 4 C-6.69 4 -4.38 4 -2 4 C-1.34 2.68 -0.68 1.36 0 0 Z " fill="#010101" transform="translate(535,328)"/>
<path d="M0 0 C1.32 0 2.64 0 4 0 C4 0.99 4 1.98 4 3 C4.639375 3.103125 5.27875 3.20625 5.9375 3.3125 C6.618125 3.539375 7.29875 3.76625 8 4 C8.33 4.99 8.66 5.98 9 7 C9.66 7 10.32 7 11 7 C11 8.32 11 9.64 11 11 C11.66 11 12.32 11 13 11 C13 15.95 13 20.9 13 26 C12.34 26 11.68 26 11 26 C11 27.32 11 28.64 11 30 C10.34 30 9.68 30 9 30 C9 30.99 9 31.98 9 33 C8.34 33 7.68 33 7 33 C7 34.32 7 35.64 7 37 C6.01 37 5.02 37 4 37 C4 38.32 4 39.64 4 41 C2.68 41 1.36 41 0 41 C0 42.32 0 43.64 0 45 C-0.66 45 -1.32 45 -2 45 C-2 45.99 -2 46.98 -2 48 C-3.62463842 48.05395478 -5.24978541 48.09277195 -6.875 48.125 C-8.23238281 48.15980469 -8.23238281 48.15980469 -9.6171875 48.1953125 C-12 48 -12 48 -14 46 C-16.52574281 45.71904008 -18.96722947 45.53455009 -21.5 45.4375 C-28.76306352 45.11846824 -28.76306352 45.11846824 -31 44 C-31 43.01 -31 42.02 -31 41 C-36.94 41 -42.88 41 -49 41 C-49.495 39.02 -49.495 39.02 -50 37 C-55.94 37 -61.88 37 -68 37 C-68.495 35.02 -68.495 35.02 -69 33 C-73.95 33 -78.9 33 -84 33 C-84 34.32 -84 35.64 -84 37 C-84.66 37 -85.32 37 -86 37 C-85.85923685 38.9587043 -85.7122324 40.91696093 -85.5625 42.875 C-85.48128906 43.96554687 -85.40007813 45.05609375 -85.31640625 46.1796875 C-85.16998297 48.94728971 -85.16998297 48.94728971 -84 51 C-83.9044069 52.66444461 -83.87015355 54.33281963 -83.875 56 C-83.87113281 57.3303125 -83.87113281 57.3303125 -83.8671875 58.6875 C-84 61 -84 61 -85 63 C-85.10195192 64.52390751 -85.14213002 66.05215186 -85.15148926 67.57943726 C-85.16400475 69.02633186 -85.16400475 69.02633186 -85.17677307 70.50245667 C-85.18095749 71.56431686 -85.18514191 72.62617706 -85.18945312 73.72021484 C-85.19774643 74.83574234 -85.20603973 75.95126984 -85.21458435 77.1006012 C-85.23201485 79.52929625 -85.24717339 81.9580084 -85.26036072 84.38673019 C-85.28133992 88.22739871 -85.30836744 92.06798155 -85.33703613 95.90859985 C-85.3968168 104.06403406 -85.44896333 112.21950706 -85.5 120.375 C-85.5591168 129.81585331 -85.62147652 139.25666012 -85.69187927 148.69743729 C-85.7184903 152.48645946 -85.73928479 156.27548575 -85.7598877 160.06454468 C-85.77649003 162.38336387 -85.79336181 164.70218115 -85.81054688 167.02099609 C-85.81473129 168.07880783 -85.81891571 169.13661957 -85.82322693 170.22648621 C-85.83574242 171.68184029 -85.83574242 171.68184029 -85.84851074 173.16659546 C-85.85366447 174.0083602 -85.85881821 174.85012493 -85.86412811 175.71739769 C-85.99678404 177.94597299 -86.46006978 179.8416416 -87 182 C-87.09573091 183.60234303 -87.14161585 185.20804735 -87.15148926 186.81321716 C-87.16400475 188.26206802 -87.16400475 188.26206802 -87.17677307 189.7401886 C-87.18095749 190.7932872 -87.18514191 191.8463858 -87.18945312 192.93139648 C-87.19774643 194.04560974 -87.20603973 195.159823 -87.21458435 196.30780029 C-87.23198253 198.72772744 -87.24714998 201.14767141 -87.26036072 203.56762505 C-87.28138748 207.39612598 -87.3084108 211.2245426 -87.33703613 215.05299377 C-87.39673429 223.18113105 -87.44893478 231.30930505 -87.5 239.4375 C-87.55916377 248.85185231 -87.62152321 258.26615976 -87.69187927 267.68043709 C-87.71845681 271.45446054 -87.73927003 275.22848818 -87.7598877 279.00254822 C-87.77649169 281.31477052 -87.79336361 283.62699092 -87.81054688 285.93920898 C-87.81473129 286.99028336 -87.81891571 288.04135773 -87.82322693 289.12428284 C-87.83574242 290.57736343 -87.83574242 290.57736343 -87.84851074 292.05979919 C-87.85366447 292.8980445 -87.85881821 293.73628981 -87.86412811 294.59993649 C-88 297 -88 297 -88.5 299.45525074 C-89.04806278 302.24461542 -89.13650551 304.81406064 -89.15148926 307.65618896 C-89.16400475 309.34931465 -89.16400475 309.34931465 -89.17677307 311.0766449 C-89.18095749 312.30657669 -89.18514191 313.53650848 -89.18945312 314.80371094 C-89.19774643 316.10717972 -89.20603973 317.4106485 -89.21458435 318.75361633 C-89.23262509 321.58981313 -89.2476494 324.42600427 -89.26036072 327.26222992 C-89.28073167 331.78319325 -89.30838141 336.30409485 -89.33703613 340.82501221 C-89.3920215 349.65211216 -89.44002767 358.47924303 -89.48697662 367.30638885 C-89.54630627 378.43856915 -89.60779938 389.57073017 -89.67754889 400.70285058 C-89.70077181 404.44239246 -89.72236109 408.18192672 -89.73963928 411.92150116 C-89.81323105 427.77491435 -90.00662456 443.61813016 -90.45507812 459.46582031 C-90.47424758 460.19071073 -90.49341703 460.91560115 -90.51316738 461.66245794 C-90.56808734 463.69579326 -90.63059268 465.72891948 -90.69348145 467.76202393 C-90.72834908 468.92114918 -90.76321671 470.08027443 -90.79914093 471.27452469 C-91 474 -91 474 -92 476 C-92.10435145 478.19976547 -92.14229515 480.4027605 -92.15148926 482.60498047 C-92.15572167 483.29131498 -92.15995408 483.9776495 -92.16431475 484.68478203 C-92.1773807 486.99558597 -92.18337461 489.30635538 -92.18945312 491.6171875 C-92.19739233 493.269391 -92.20578002 494.92159239 -92.21458435 496.5737915 C-92.23266479 500.13693637 -92.24767196 503.70007653 -92.26036072 507.26324463 C-92.28054422 512.89281184 -92.30820127 518.52232683 -92.33703613 524.15185547 C-92.39718018 536.10121257 -92.44900441 548.05060089 -92.5 560 C-92.55504628 572.89856467 -92.61148174 585.79711354 -92.67754889 598.69562721 C-92.70595135 604.29652551 -92.72952815 609.89741754 -92.74947357 615.49835205 C-92.76283204 618.97722871 -92.78024596 622.45607635 -92.79878426 625.93492889 C-92.80655988 627.5530906 -92.81262085 629.17126155 -92.81687737 630.78943634 C-92.8228974 632.9913472 -92.83493246 635.19314427 -92.84851074 637.39501953 C-92.85366447 638.62946808 -92.85881821 639.86391663 -92.86412811 641.13577271 C-93 644 -93 644 -94 646 C-94.10383193 648.0097941 -94.14226045 650.02306918 -94.15148926 652.03552246 C-94.15983292 653.32274704 -94.16817657 654.60997162 -94.17677307 655.936203 C-94.18108279 657.37087988 -94.18530657 658.80555702 -94.18945312 660.24023438 C-94.19739275 661.74465671 -94.20578048 663.24907674 -94.21458435 664.75349426 C-94.23266194 667.99742465 -94.24767013 671.24134989 -94.26036072 674.48530579 C-94.28054807 679.61080185 -94.30820461 684.73624061 -94.33703613 689.86169434 C-94.39717434 700.74110277 -94.44900158 711.62054546 -94.5 722.5 C-94.5550498 734.24373161 -94.61148877 745.98744589 -94.67754889 757.73112154 C-94.70594688 762.8302455 -94.72952528 767.9293626 -94.74947357 773.02852631 C-94.7628344 776.19602049 -94.78024819 779.36348283 -94.79878426 782.53095055 C-94.80655821 784.00398137 -94.81261992 785.47702234 -94.81687737 786.95006752 C-94.82289977 788.95488954 -94.8355159 790.95968858 -94.84851074 792.96447754 C-94.85366447 794.08831093 -94.85881821 795.21214432 -94.86412811 796.37003326 C-95 799 -95 799 -96 801 C-96.10228644 802.59400125 -96.1421538 804.19219153 -96.15148926 805.78944397 C-96.16400475 807.30594795 -96.16400475 807.30594795 -96.17677307 808.85308838 C-96.18095749 809.96641541 -96.18514191 811.07974243 -96.18945312 812.22680664 C-96.19774643 813.39592087 -96.20603973 814.5650351 -96.21458435 815.76957703 C-96.23657356 818.98015865 -96.25426437 822.19073209 -96.27039146 825.4013474 C-96.28852574 828.75615443 -96.31298302 832.11091407 -96.33703613 835.46568298 C-96.40227422 844.72448626 -96.45770332 853.98334349 -96.51302338 863.24221039 C-96.56382523 871.72927011 -96.61667009 880.21630335 -96.67754889 888.70329756 C-96.70128907 892.04615178 -96.72286428 895.38899273 -96.73963928 898.73188972 C-96.75892138 902.45549846 -96.78409351 906.17902425 -96.81054688 909.90258789 C-96.81473129 911.01793915 -96.81891571 912.13329041 -96.82322693 913.28244019 C-96.83574242 914.79471443 -96.83574242 914.79471443 -96.84851074 916.33753967 C-96.85624134 917.65964242 -96.85624134 917.65964242 -96.86412811 919.00845432 C-97 921 -97 921 -98 922 C-98.18425439 923.57932331 -98.32254756 925.16412556 -98.4375 926.75 C-98.77122334 930.50707894 -99.29250849 933.58501698 -101 937 C-101.66 937 -102.32 937 -103 937 C-103 938.32 -103 939.64 -103 941 C-103.66 941 -104.32 941 -105 941 C-105 942.32 -105 943.64 -105 945 C-105.66 945 -106.32 945 -107 945 C-107.13277344 945.62648438 -107.26554688 946.25296875 -107.40234375 946.8984375 C-107.57894531 947.71570312 -107.75554688 948.53296875 -107.9375 949.375 C-108.19853516 950.59316406 -108.19853516 950.59316406 -108.46484375 951.8359375 C-109 954 -109 954 -110 956 C-110.66 956 -111.32 956 -112 956 C-112 957.32 -112 958.64 -112 960 C-112.66 960 -113.32 960 -114 960 C-114 960.99 -114 961.98 -114 963 C-114.66 963 -115.32 963 -116 963 C-116.103125 963.804375 -116.20625 964.60875 -116.3125 965.4375 C-117.15100373 969.78247386 -118.52821659 973.83457527 -120 978 C-120.66 978 -121.32 978 -122 978 C-122 979.32 -122 980.64 -122 982 C-122.66 982 -123.32 982 -124 982 C-124 983.32 -124 984.64 -124 986 C-124.66 986 -125.32 986 -126 986 C-126.12375 987.0725 -126.2475 988.145 -126.375 989.25 C-126.89643936 992.37863615 -127.40088254 994.33480424 -129 997 C-129.66 997 -130.32 997 -131 997 C-131 998.32 -131 999.64 -131 1001 C-131.66 1001 -132.32 1001 -133 1001 C-133 1003.31 -133 1005.62 -133 1008 C-133.66 1008 -134.32 1008 -135 1008 C-135 1009.32 -135 1010.64 -135 1012 C-135.66 1012 -136.32 1012 -137 1012 C-137.33 1013.32 -137.66 1014.64 -138 1016 C-139.65 1015.67 -141.3 1015.34 -143 1015 C-143 1014.01 -143 1013.02 -143 1012 C-143.66 1012 -144.32 1012 -145 1012 C-145 1009.69 -145 1007.38 -145 1005 C-145.66 1005 -146.32 1005 -147 1005 C-147 1003.68 -147 1002.36 -147 1001 C-147.66 1001 -148.32 1001 -149 1001 C-149 998.69 -149 996.38 -149 994 C-146.39473112 996.60526888 -145.65865776 999.17939234 -144.375 1002.625 C-143.92898438 1003.81351563 -143.48296875 1005.00203125 -143.0234375 1006.2265625 C-142.68570313 1007.14179687 -142.34796875 1008.05703125 -142 1009 C-138.31267778 1004.34377574 -135.99468875 999.14674941 -133.4375 993.8125 C-132.88247803 992.65862793 -132.32745605 991.50475586 -131.75561523 990.31591797 C-125.62224043 977.46618782 -119.94639696 964.41076124 -114.26928711 951.35473633 C-113.90176834 950.51129166 -113.53424957 949.66784698 -113.15559387 948.79884338 C-112.43287461 947.13350404 -111.7153595 945.46589598 -111.0032196 943.79600525 C-109.51700074 940.33436085 -108.01133139 937.02022319 -106.16748047 933.72949219 C-102.26487367 926.69573762 -101.56836746 920.94399818 -101.37329102 912.98803711 C-101.33864998 911.9282002 -101.30400894 910.86836329 -101.26831818 909.7764101 C-101.16591943 906.51782526 -101.0807023 903.25918763 -101 900 C-100.9745001 899.05975227 -100.94900021 898.11950455 -100.92272758 897.15076447 C-100.74565456 890.57374521 -100.61714669 883.99629451 -100.5 877.41796875 C-100.4801001 876.3474999 -100.4602002 875.27703106 -100.43969727 874.17412376 C-99.76006801 837.48994886 -99.37846896 800.80041979 -98.9375 764.11279297 C-98.8039898 753.01084864 -98.66909412 741.90892262 -98.53113627 730.80703259 C-98.51037384 729.13580226 -98.48966212 727.46457131 -98.46900105 725.79333973 C-98.21882323 705.57999555 -97.91883643 685.37014585 -97.46484375 665.16015625 C-96.92388914 641.02812285 -96.76347351 616.89658782 -96.61184692 592.75942993 C-96.52638208 579.32518856 -96.42407549 565.8910793 -96.3125 552.45703125 C-96.30681039 551.77171916 -96.30112078 551.08640707 -96.29525876 550.38032794 C-96.05653362 521.85447606 -95.59912885 493.33422867 -95.0625 464.8125 C-94.4632902 432.89138914 -93.92148021 400.97118532 -93.53125 369.046875 C-93.51693097 367.87596526 -93.51693097 367.87596526 -93.50232267 366.68140078 C-93.38361228 356.95722491 -93.26718679 347.23302204 -93.15132821 337.50881183 C-92.41981011 276.12788279 -91.5625786 214.74969393 -90.58710057 153.37213475 C-90.47139367 146.08877412 -90.35701231 138.80539354 -90.24319458 131.52200317 C-90.08923932 121.67790164 -89.93203567 111.83385572 -89.77260208 101.98984146 C-89.71414859 98.37639058 -89.65677565 94.76292535 -89.60044479 91.14944077 C-89.27120683 70.09015335 -88.79485041 49.04741528 -88 28 C-86.09566485 27.98004339 -84.19126858 27.96587 -82.28686523 27.95410156 C-81.22636459 27.94558167 -80.16586395 27.93706177 -79.07322693 27.92828369 C-74.91019952 28.0254314 -71.09487164 28.77427448 -67.0625 29.75 C-65.40671069 30.12443888 -63.75044157 30.49676104 -62.09375 30.8671875 C-61.25199219 31.05764648 -60.41023437 31.24810547 -59.54296875 31.44433594 C-55.40047857 32.3495114 -51.23213627 33.10669773 -47.0625 33.875 C-32.66689804 36.56230746 -18.18774124 39.35848679 -4 43 C-3.6596875 41.99453125 -3.6596875 41.99453125 -3.3125 40.96875 C-1.31395804 36.44823842 1.55956781 32.57833787 4.3671875 28.52734375 C8.68014662 22.54185206 8.68014662 22.54185206 9.83984375 15.47265625 C8.85643127 12.57730695 7.52069114 10.77837299 5.5625 8.4375 C3.30411555 5.71706612 1.45737468 3.22965947 0 0 Z " fill="#F1F1F1" transform="translate(699,591)"/>
<path d="M0 0 C27.72 0 55.44 0 84 0 C84 1.32 84 2.64 84 4 C85.32 4 86.64 4 88 4 C88 5.32 88 6.64 88 8 C88.66 8 89.32 8 90 8 C90 8.99 90 9.98 90 11 C90.99 11.33 91.98 11.66 93 12 C93.2165625 13.7015625 93.2165625 13.7015625 93.4375 15.4375 C93.61171478 18.80777201 93.61171478 18.80777201 95 20 C95.24435082 23.96847945 95.22863451 27.94088892 95.24023438 31.91625977 C95.24980951 33.89807249 95.28093668 35.87974363 95.3125 37.86132812 C95.37506764 53.29207164 95.37506764 53.29207164 92 59 C89.89160156 59.75756836 89.89160156 59.75756836 88 60 C88 61.32 88 62.64 88 64 C86.68 64 85.36 64 84 64 C84 65.32 84 66.64 84 68 C83.030625 68.12375 82.06125 68.2475 81.0625 68.375 C80.051875 68.58125 79.04125 68.7875 78 69 C77.67 69.66 77.34 70.32 77 71 C74.36 71 71.72 71 69 71 C69 72.32 69 73.64 69 75 C68.34 75 67.68 75 67 75 C67.1404983 77.7920301 67.28715383 80.58349796 67.4375 83.375 C67.47681641 84.1690625 67.51613281 84.963125 67.55664062 85.78125 C67.68893404 90.02601221 67.68893404 90.02601221 69 94 C69.09365406 95.87521677 69.12191021 97.7538249 69.12025452 99.63137817 C69.12231651 101.42771698 69.12231651 101.42771698 69.12442017 103.26034546 C69.12088081 104.59429956 69.117246 105.92825342 69.11352539 107.26220703 C69.11324344 108.661499 69.11340142 110.06079112 69.1139679 111.46008301 C69.11425554 115.26564122 69.10836406 119.07116809 69.10139394 122.876719 C69.095155 126.85123188 69.09455617 130.82574543 69.09336853 134.80026245 C69.09025681 142.32963744 69.08204556 149.85899797 69.07201904 157.38836658 C69.06085297 165.95898551 69.0553462 174.52960511 69.05032361 183.1002295 C69.03986283 200.73349455 69.02226646 218.36674611 69 236 C69.66 236 70.32 236 71 236 C71 237.32 71 238.64 71 240 C75.29 240 79.58 240 84 240 C83.67 241.32 83.34 242.64 83 244 C82.34 243.34 81.68 242.68 81 242 C78.84135505 241.75005164 76.6709433 241.59605944 74.5 241.5 C68.22222222 241.22222222 68.22222222 241.22222222 66 239 C65.74989132 236.25605654 65.62685036 233.60850419 65.58813477 230.85913086 C65.56889135 230.00101618 65.54964794 229.1429015 65.5298214 228.25878334 C65.46859571 225.34840558 65.42318005 222.438026 65.37890625 219.52734375 C65.34087054 217.43521471 65.30274659 215.34308726 65.26454163 213.2509613 C64.80717767 186.18747049 64.88488836 159.11760103 64.92797148 132.05121839 C64.93944869 124.71300584 64.94472131 117.37479196 64.94967639 110.03657258 C64.95994198 95.02437169 64.97735907 80.01218775 65 65 C65.80751709 64.88897949 66.61503418 64.77795898 67.44702148 64.66357422 C68.51509033 64.5038916 69.58315918 64.34420898 70.68359375 64.1796875 C71.73861084 64.02741699 72.79362793 63.87514648 73.88061523 63.71826172 C80.21688866 62.25928728 85.49478961 58.47104055 89 53 C90.27143049 49.28107944 90.17892088 45.48781448 90.203125 41.6015625 C90.20882507 40.88898285 90.21452515 40.1764032 90.22039795 39.44223022 C90.22982224 37.93773878 90.23637169 36.43322694 90.24023438 34.92871094 C90.24993809 32.63960402 90.28098335 30.35139641 90.3125 28.0625 C90.31903123 26.59635946 90.32428123 25.13021255 90.328125 23.6640625 C90.3466452 22.64658432 90.3466452 22.64658432 90.36553955 21.60855103 C90.33599373 15.23567688 88.07914736 10.84323024 83.8125 6.25 C81 3.21167883 81 3.21167883 81 1 C53.94 1.33 26.88 1.66 -1 2 C-0.67 1.34 -0.34 0.68 0 0 Z " fill="#DEDEDE" transform="translate(535,328)"/>
<path d="M0 0 C0.33 0 0.66 0 1 0 C1.02332969 15.10724691 1.04097952 30.21449243 1.05181217 45.3217535 C1.05697498 52.33584634 1.06401739 59.349928 1.07543945 66.36401367 C1.08644688 73.12668068 1.09227619 79.88933364 1.09487724 86.65200996 C1.09673203 89.2385228 1.10035367 91.82503497 1.10573006 94.41154289 C1.11293651 98.02038855 1.11399111 101.62918547 1.11352539 105.23803711 C1.11712067 106.3191275 1.12071594 107.4002179 1.12442017 108.5140686 C1.1230455 109.49148514 1.12167084 110.46890167 1.12025452 111.47593689 C1.12117631 112.33043899 1.1220981 113.18494108 1.12304783 114.06533718 C1 116 1 116 0 117 C-0.18425439 118.57932331 -0.32254756 120.16412556 -0.4375 121.75 C-0.77122334 125.50707894 -1.29250849 128.58501698 -3 132 C-3.66 132 -4.32 132 -5 132 C-5 133.32 -5 134.64 -5 136 C-5.66 136 -6.32 136 -7 136 C-7 137.32 -7 138.64 -7 140 C-7.66 140 -8.32 140 -9 140 C-9.13277344 140.62648438 -9.26554688 141.25296875 -9.40234375 141.8984375 C-9.57894531 142.71570312 -9.75554688 143.53296875 -9.9375 144.375 C-10.11152344 145.18710938 -10.28554688 145.99921875 -10.46484375 146.8359375 C-11 149 -11 149 -12 151 C-12.66 151 -13.32 151 -14 151 C-14 152.32 -14 153.64 -14 155 C-14.66 155 -15.32 155 -16 155 C-16 155.99 -16 156.98 -16 158 C-16.66 158 -17.32 158 -18 158 C-18.103125 158.804375 -18.20625 159.60875 -18.3125 160.4375 C-19.15100373 164.78247386 -20.52821659 168.83457527 -22 173 C-22.66 173 -23.32 173 -24 173 C-24 174.32 -24 175.64 -24 177 C-24.66 177 -25.32 177 -26 177 C-26 178.32 -26 179.64 -26 181 C-26.66 181 -27.32 181 -28 181 C-28.12375 182.0725 -28.2475 183.145 -28.375 184.25 C-28.89643936 187.37863615 -29.40088254 189.33480424 -31 192 C-31.66 192 -32.32 192 -33 192 C-33 193.32 -33 194.64 -33 196 C-33.66 196 -34.32 196 -35 196 C-35 198.31 -35 200.62 -35 203 C-35.66 203 -36.32 203 -37 203 C-37 204.32 -37 205.64 -37 207 C-37.66 207 -38.32 207 -39 207 C-39.495 208.98 -39.495 208.98 -40 211 C-41.65 210.67 -43.3 210.34 -45 210 C-45 209.01 -45 208.02 -45 207 C-45.66 207 -46.32 207 -47 207 C-47 204.69 -47 202.38 -47 200 C-47.66 200 -48.32 200 -49 200 C-49 198.68 -49 197.36 -49 196 C-49.66 196 -50.32 196 -51 196 C-51 193.69 -51 191.38 -51 189 C-48.39473112 191.60526888 -47.65865776 194.17939234 -46.375 197.625 C-45.92898438 198.81351563 -45.48296875 200.00203125 -45.0234375 201.2265625 C-44.68570313 202.14179687 -44.34796875 203.05703125 -44 204 C-40.31267778 199.34377574 -37.99468875 194.14674941 -35.4375 188.8125 C-34.88247803 187.65862793 -34.32745605 186.50475586 -33.75561523 185.31591797 C-27.62224043 172.46618782 -21.94639696 159.41076124 -16.26928711 146.35473633 C-15.90176834 145.51129166 -15.53424957 144.66784698 -15.15559387 143.79884338 C-14.43287461 142.13350404 -13.7153595 140.46589598 -13.0032196 138.79600525 C-11.51700074 135.33436085 -10.01133139 132.02022319 -8.16748047 128.72949219 C-4.26804088 121.70144596 -3.56848243 115.95539585 -3.37329102 108.00610352 C-3.33864998 106.9498046 -3.30400894 105.89350569 -3.26831818 104.80519772 C-3.16544721 101.53701797 -3.08017027 98.26880891 -3 95 C-2.9745001 94.02990997 -2.94900021 93.05981995 -2.92272758 92.06033325 C-2.77629614 86.40214794 -2.65818012 80.74374447 -2.55444336 75.08462715 C-2.4981509 72.02851875 -2.4380135 68.97250533 -2.37695312 65.91648865 C-2.20436699 57.25049628 -2.03783178 48.58439378 -1.875 39.91821289 C-1.77419955 34.56720965 -1.66872032 29.21631541 -1.56030273 23.86546135 C-1.52018884 21.83720377 -1.48193192 19.80890859 -1.44555664 17.78058052 C-1.395175 14.97413834 -1.33890391 12.16787305 -1.28125 9.36157227 C-1.26771484 8.5239032 -1.25417969 7.68623413 -1.24023438 6.82318115 C-1.11395204 1.11395204 -1.11395204 1.11395204 0 0 Z " fill="#F2F2F2" transform="translate(601,1396)"/>
<path d="M0 0 C1.54396325 2.31594488 2.92799769 4.59305357 4.27734375 7.01953125 C4.70853516 7.79490234 5.13972656 8.57027344 5.58398438 9.36914062 C6.03064453 10.17544922 6.47730469 10.98175781 6.9375 11.8125 C7.38029297 12.60720703 7.82308594 13.40191406 8.27929688 14.22070312 C10.61910441 18.43654114 12.88561907 22.66656581 15 27 C31.39810515 24.89972624 47.84300871 22.66758933 64.0078125 19.1484375 C74.92572033 16.77289272 85.87109615 15.84949972 97 15 C97 17.31 97 19.62 97 22 C96.34 22 95.68 22 95 22 C95 21.01 95 20.02 95 19 C93.35 19 91.7 19 90 19 C90 19.99 90 20.98 90 22 C84.39 22 78.78 22 73 22 C72.67 23.32 72.34 24.64 72 26 C64.74 26 57.48 26 50 26 C50 26.99 50 27.98 50 29 C47.65147472 30.17426264 46.26225935 30.11508173 43.6484375 30.09765625 C42.37226563 30.09282227 42.37226563 30.09282227 41.0703125 30.08789062 C40.18085938 30.07951172 39.29140625 30.07113281 38.375 30.0625 C37.4778125 30.05798828 36.580625 30.05347656 35.65625 30.04882812 C33.43743352 30.03702591 31.21874982 30.02056155 29 30 C28.67 30.99 28.34 31.98 28 33 C25.63386544 34.18306728 24.13219264 34.13354608 21.5 34.125 C20.7059375 34.12757813 19.911875 34.13015625 19.09375 34.1328125 C17 34 17 34 15 33 C15 32.01 15 31.02 15 30 C14.01 30 13.02 30 12 30 C12 28.68 12 27.36 12 26 C11.34 26 10.68 26 10 26 C10 24.68 10 23.36 10 22 C9.34 22 8.68 22 8 22 C8 21.01 8 20.02 8 19 C7.34 19 6.68 19 6 19 C6 17.68 6 16.36 6 15 C5.34 15 4.68 15 4 15 C4 13.68 4 12.36 4 11 C3.34 11 2.68 11 2 11 C2 9.68 2 8.36 2 7 C1.34 7 0.68 7 0 7 C0 4.69 0 2.38 0 0 Z " fill="#F5F5F5" transform="translate(436,602)"/>
<path d="M0 0 C0.33 0 0.66 0 1 0 C1.06058594 1.20398438 1.12117187 2.40796875 1.18359375 3.6484375 C1.26799732 5.22397077 1.35264541 6.79949096 1.4375 8.375 C1.47681641 9.1690625 1.51613281 9.963125 1.55664062 10.78125 C1.68893404 15.02601221 1.68893404 15.02601221 3 19 C3.09365406 20.87521677 3.12191021 22.7538249 3.12025452 24.63137817 C3.12162918 25.82893738 3.12300385 27.02649658 3.12442017 28.26034546 C3.12088081 29.59429956 3.117246 30.92825342 3.11352539 32.26220703 C3.11324344 33.661499 3.11340142 35.06079112 3.1139679 36.46008301 C3.11425554 40.26564122 3.10836406 44.07116809 3.10139394 47.876719 C3.095155 51.85123188 3.09455617 55.82574543 3.09336853 59.80026245 C3.09025681 67.32963744 3.08204556 74.85899797 3.07201904 82.38836658 C3.06085297 90.95898551 3.0553462 99.52960511 3.05032361 108.1002295 C3.03986283 125.73349455 3.02226646 143.36674611 3 161 C3.66 161 4.32 161 5 161 C5 162.32 5 163.64 5 165 C9.29 165 13.58 165 18 165 C17.67 166.32 17.34 167.64 17 169 C16.34 168.34 15.68 167.68 15 167 C12.84135505 166.75005164 10.6709433 166.59605944 8.5 166.5 C2.22222222 166.22222222 2.22222222 166.22222222 0 164 C-0.24609566 161.19265556 -0.24609566 161.19265556 -0.24050903 157.53341675 C-0.24221788 156.86200531 -0.24392673 156.19059387 -0.24568737 155.49883664 C-0.24899389 153.23853801 -0.23795974 150.9785332 -0.22705078 148.71826172 C-0.22648692 147.10222379 -0.22680274 145.48618534 -0.22793579 143.87014771 C-0.22851127 139.47366757 -0.21672542 135.07729584 -0.20278788 130.68084097 C-0.19031302 126.08973326 -0.18911259 121.49862326 -0.18673706 116.90750122 C-0.18051273 108.2093822 -0.16408905 99.51131326 -0.14403808 90.81321633 C-0.12170869 80.91251891 -0.11069311 71.01181914 -0.10064721 61.11110282 C-0.07972362 40.74070723 -0.04452917 20.37035676 0 0 Z " fill="#FDFDFD" transform="translate(601,403)"/>
<path d="M0 0 C0.33 0 0.66 0 1 0 C1 38.28 1 76.56 1 116 C-0.485 116.495 -0.485 116.495 -2 117 C-2.19567269 43.52734599 -2.19567269 43.52734599 -1.5625 17.4375 C-1.54285187 16.56836975 -1.52320374 15.6992395 -1.50296021 14.80377197 C-1.18389558 1.18389558 -1.18389558 1.18389558 0 0 Z " fill="#FAFAFA" transform="translate(601,1396)"/>
<path d="M0 0 C0.33 0 0.66 0 1 0 C0.99254257 1.20759979 0.98508514 2.41519958 0.97740173 3.65939331 C0.91238291 15.15952621 0.89605742 26.65888714 0.92484188 38.15917778 C0.9381374 44.06872357 0.93553022 49.97728504 0.89379883 55.88671875 C0.03101796 92.52595131 0.03101796 92.52595131 11 127 C10.34 127 9.68 127 9 127 C9 126.01 9 125.02 9 124 C8.01 123.67 7.02 123.34 6 123 C4.60955102 119.12137916 4 116.13537997 4 112 C3.34 112 2.68 112 2 112 C2 109.69 2 107.38 2 105 C1.34 105 0.68 105 0 105 C0 70.35 0 35.7 0 0 Z " fill="#E3E3E3" transform="translate(522,1412)"/>
<path d="M0 0 C0.99 1.485 0.99 1.485 2 3 C3.10309152 4.37207196 4.23009953 5.72511626 5.375 7.0625 C6.25285156 8.10083984 6.25285156 8.10083984 7.1484375 9.16015625 C10.99645163 12.98381586 14.41802708 13.30508162 19.75 13.625 C20.92046875 13.69976562 22.0909375 13.77453125 23.296875 13.8515625 C24.63492188 13.92503906 24.63492188 13.92503906 26 14 C26.66 16.31 27.32 18.62 28 21 C26.35 20.67 24.7 20.34 23 20 C23 19.34 23 18.68 23 18 C19.04 18 15.08 18 11 18 C10.34 16.68 9.68 15.36 9 14 C6.44480079 13.18828772 6.44480079 13.18828772 4 13 C4 12.01 4 11.02 4 10 C3.34 10 2.68 10 2 10 C2 8.68 2 7.36 2 6 C1.34 6 0.68 6 0 6 C0 4.02 0 2.04 0 0 Z " fill="#EFEFEF" transform="translate(522,378)"/>
<path d="M0 0 C1.32 0 2.64 0 4 0 C4 1.32 4 2.64 4 4 C4.66 4 5.32 4 6 4 C7.4606285 6.64738916 8 7.89448334 8 11 C8.99 11 9.98 11 11 11 C11 12.32 11 13.64 11 15 C16.61 15 22.22 15 28 15 C28 15.33 28 15.66 28 16 C21.30324864 17.03026944 14.7685324 17.10152799 8 17 C7.75765625 16.35933594 7.5153125 15.71867188 7.265625 15.05859375 C5.20715373 9.74615443 2.96230321 4.86664099 0 0 Z " fill="#DBDBDB" transform="translate(619,572)"/>
<path d="M0 0 C2.04627931 3.06941896 3.2523446 5.91861534 4.6015625 9.34765625 C4.8428891 9.96015732 5.0842157 10.57265839 5.33285522 11.20372009 C5.84051019 12.49491068 6.34638325 13.78680311 6.85058594 15.0793457 C7.62435318 17.06084359 8.40552433 19.03930739 9.1875 21.01757812 C9.68013367 22.27326255 10.17233612 23.52911626 10.6640625 24.78515625 C11.33622803 26.50037476 11.33622803 26.50037476 12.02197266 28.25024414 C13 31 13 31 13 33 C12.01 33 11.02 33 10 33 C7.67409146 29.36576791 7.83734167 26.22911669 8 22 C7.34 22 6.68 22 6 22 C6 20.68 6 19.36 6 18 C5.34 18 4.68 18 4 18 C2.80712589 14.12315913 2 11.08378077 2 7 C1.34 7 0.68 7 0 7 C0 4.69 0 2.38 0 0 Z " fill="#E4E4E4" transform="translate(537,1551)"/>
<path d="M0 0 C4.3782512 -0.02469081 8.75646567 -0.04285557 13.13476562 -0.05493164 C14.62468166 -0.05996514 16.11459274 -0.06679242 17.60449219 -0.07543945 C19.74415304 -0.08754805 21.88374868 -0.09323807 24.0234375 -0.09765625 C25.31169434 -0.10289307 26.59995117 -0.10812988 27.92724609 -0.11352539 C31 0 31 0 33 1 C33 1.99 33 2.98 33 4 C32.030625 3.86722656 31.06125 3.73445312 30.0625 3.59765625 C20.38452174 2.31001779 10.74957376 1.49266463 1 1 C0.67 1.66 0.34 2.32 0 3 C0 2.01 0 1.02 0 0 Z " fill="#E1E1E1" transform="translate(455,579)"/>
<path d="M0 0 C0.66 0.99 1.32 1.98 2 3 C4.55183404 4.20450304 4.55183404 4.20450304 7 5 C7 5.99 7 6.98 7 8 C7.66 8 8.32 8 9 8 C8.67 9.32 8.34 10.64 8 12 C7.443125 11.4225 6.88625 10.845 6.3125 10.25 C2.05559899 5.87298812 2.05559899 5.87298812 -3.37890625 3.46875 C-5.78120693 3.45589488 -5.78120693 3.45589488 -9 4 C-9 3.01 -9 2.02 -9 1 C-5.95699684 -0.52150158 -3.345915 -0.23899393 0 0 Z " fill="#EFEFEF" transform="translate(690,579)"/>
<path d="M0 0 C0.33 1.32 0.66 2.64 1 4 C-3.13418591 5.94456928 -6.769997 6.37028021 -11.3125 6.625 C-12.56675781 6.69976563 -13.82101562 6.77453125 -15.11328125 6.8515625 C-16.54220703 6.92503906 -16.54220703 6.92503906 -18 7 C-17.67 6.01 -17.34 5.02 -17 4 C-11.72 4 -6.44 4 -1 4 C-0.67 2.68 -0.34 1.36 0 0 Z " fill="#EFEFEF" transform="translate(551,564)"/>
<path d="M0 0 C5.61 0 11.22 0 17 0 C17.33 0.99 17.66 1.98 18 3 C15.74943278 2.88566637 13.49953326 2.75813564 11.25 2.625 C9.99703125 2.55539062 8.7440625 2.48578125 7.453125 2.4140625 C4 2 4 2 0 0 Z " fill="#E2E2E2" transform="translate(491,583)"/>
<path d="M0 0 C1.32 0 2.64 0 4 0 C4 1.32 4 2.64 4 4 C5.32 4 6.64 4 8 4 C8 5.32 8 6.64 8 8 C8.66 8 9.32 8 10 8 C10 8.99 10 9.98 10 11 C6.57802415 9.57913611 4.90089977 7.93029236 2.75 4.9375 C1.96882812 3.86822266 1.96882812 3.86822266 1.171875 2.77734375 C0 1 0 1 0 0 Z " fill="#F4F4F4" transform="translate(615,328)"/>
<path d="M0 0 C2.95064148 -0.2208564 5.68368231 -0.28060989 8.625 -0.1875 C9.42679688 -0.17396484 10.22859375 -0.16042969 11.0546875 -0.14648438 C13.03674378 -0.11109051 15.01845551 -0.05728234 17 0 C17 0.33 17 0.66 17 1 C14.95928485 1.33910994 12.91737379 1.67102704 10.875 2 C9.16957031 2.2784375 9.16957031 2.2784375 7.4296875 2.5625 C4.23862398 2.96956049 1.21182209 3.07809902 -2 3 C-1.34 2.01 -0.68 1.02 0 0 Z " fill="#E9E9E9" transform="translate(659,583)"/>
<path d="M0 0 C2.34914492 2.34914492 2.73140357 3.95679446 3.625 7.125 C3.88539063 8.03507812 4.14578125 8.94515625 4.4140625 9.8828125 C4.70410156 10.93082031 4.70410156 10.93082031 5 12 C4.01 11.67 3.02 11.34 2 11 C2 9.68 2 8.36 2 7 C1.34 7 0.68 7 0 7 C0 4.69 0 2.38 0 0 Z " fill="#DEDEDE" transform="translate(550,1585)"/>
<path d="M0 0 C1.32 0.33 2.64 0.66 4 1 C4 1.99 4 2.98 4 4 C4.66 4 5.32 4 6 4 C5.67 5.32 5.34 6.64 5 8 C2.5 5.6875 2.5 5.6875 0 3 C0 2.01 0 1.02 0 0 Z " fill="#FDFDFD" transform="translate(693,583)"/>
<path d="M0 0 C5.28 0 10.56 0 16 0 C15.67 1.32 15.34 2.64 15 4 C14.34 3.34 13.68 2.68 13 2 C9.87803664 1.53513282 9.87803664 1.53513282 6.375 1.375 C5.18648437 1.30023437 3.99796875 1.22546875 2.7734375 1.1484375 C1.85820313 1.09945312 0.94296875 1.05046875 0 1 C0 0.67 0 0.34 0 0 Z " fill="#B6B6B6" transform="translate(603,568)"/>
<path d="M0 0 C1.32 0 2.64 0 4 0 C4 1.32 4 2.64 4 4 C4.66 4 5.32 4 6 4 C6 4.99 6 5.98 6 7 C3 6 3 6 1.3125 2.9375 C0.879375 1.968125 0.44625 0.99875 0 0 Z " fill="#F2F2F2" transform="translate(619,572)"/>
</svg>
